<svg xmlns="http://www.w3.org/2000/svg" data-name="Layer 1" viewBox="-1.6 -3.2 35.2 43.2" x="0px" y="0px"><path d="M25.449,22.879h-.539s0,0,0,0c0,0,0,0,0,0h-.539c0,1.473-1.197,2.67-2.67,2.67v.539h0v.54c1.473,0,2.67,1.192,2.67,2.659h.539s0,0,0,0c0,0,0,0,0,0h.539c0-1.467,1.193-2.659,2.66-2.659v-1.078c-1.467,0-2.66-1.197-2.66-2.67Z"/><path d="M27.009,18.073l.31-5.79h1.33v-3.79h-1.47c-.02-1.27-.95-2.33-2.23-2.54-.45-1.87-2.14-3.24-4.1-3.24-1.73,0-3.27,1.07-3.91,2.65-1.78-.28-3.32,1.14-3.32,2.89v.24h-1.28v1.08h15.23v1.63H13.479v1.08h12.76l-.29,5.5-5.36-1.49c-.13-.33-.46-.57-.84-.57-.49,0-.9,.4-.9,.9s.41,.9,.9,.9c.21,0,.38-.08,.53-.19l5.61,1.55-.14,2.71,1.08,.05,.13-2.46,2.2,.61,.29-1.04-2.44-.68ZM14.699,8.493v-.24c0-1.02,.83-1.84,1.84-1.84,.18,0,.37,.03,.59,.11l.55,.18,.14-.56c.36-1.39,1.61-2.36,3.03-2.36,1.57,0,2.91,1.18,3.11,2.75l.1,.48,.5-.02c.83,0,1.51,.67,1.54,1.5H14.699Z"/><path d="M14.445,19.242c-.497-1.687-1.946-2.82-3.604-2.82h-1.554c-1.659,0-3.108,1.134-3.604,2.82l-1.984,6.733h-1.147v1.078h1.919l.03,.009,.003-.009H15.624l.003,.009,.03-.009h4.096v-1.078h-3.323l-1.984-6.733Zm-5.158-1.742h1.554c1.159,0,2.176,.8,2.552,1.995H6.735c.375-1.195,1.392-1.995,2.552-1.995Zm.237,3.073v5.402h-1.818l.796-5.402h1.022Zm1.078,0h1.023l.796,5.402h-1.819v-5.402Zm-4.189,0h.999l-.796,5.402h-1.795l1.592-5.402Zm7.097,5.402l-.796-5.402h1l1.592,5.402h-1.796Z"/><rect x="9.524" y="3.974" width="1.078" height="11.665"/><path d="M27.753,5.344c.378,0,.685-.307,.685-.685s-.307-.685-.685-.685-.685,.307-.685,.685,.307,.685,.685,.685Z"/><path d="M14.116,4.15c.378,0,.685-.307,.685-.685s-.307-.685-.685-.685-.685,.307-.685,.685,.307,.685,.685,.685Z"/></svg>