<svg xmlns="http://www.w3.org/2000/svg" xmlns:xlink="http://www.w3.org/1999/xlink" version="1.1" x="0px" y="0px" viewBox="0 0 66 82.5" style="enable-background:new 0 0 66 66;" xml:space="preserve"><path d="M23.32,49.07c1.06,0.32,2.19,0.09,3.03-0.62c1.03-0.85,2.19-1.48,3.55-1.91c1.97-0.62,4.14-0.63,6.12-0.02  c1.39,0.43,2.58,1.06,3.62,1.93c0.59,0.49,1.33,0.75,2.08,0.75c0.31,0,0.63-0.05,0.94-0.14c1.03-0.31,1.83-1.1,2.14-2.12  c1.46-4.84,0.16-10.06-3.41-13.62c-3.6-3.6-8.87-4.54-13.42-2.39c-0.38,0.18-0.54,0.62-0.36,1c0.18,0.37,0.62,0.53,1,0.36  c3.97-1.88,8.57-1.06,11.72,2.1c3.17,3.18,4.34,7.82,3.03,12.13c-0.17,0.54-0.58,0.95-1.13,1.12c-0.57,0.17-1.18,0.05-1.63-0.33  c-1.2-1-2.55-1.72-4.14-2.21c-2.27-0.7-4.76-0.69-7.02,0.02c-1.55,0.49-2.88,1.21-4.06,2.19c-0.46,0.38-1.07,0.51-1.64,0.33  c-0.55-0.17-0.96-0.57-1.13-1.11c-1.3-4.31-0.14-8.95,3.03-12.13c0.29-0.29,0.29-0.77,0-1.06c-0.29-0.29-0.77-0.29-1.06,0  c-3.57,3.57-4.87,8.79-3.41,13.62C21.5,47.97,22.3,48.76,23.32,49.07z"/><path d="M40.35,14.88c-2.57-0.56-5.32,1.89-6.1,5.47c-0.79,3.64,0.65,6.93,3.27,7.51c0.26,0.06,0.52,0.08,0.78,0.08  c2.36,0,4.6-2.27,5.32-5.55C44.4,18.8,42.93,15.44,40.35,14.88z M42.16,22.06c-0.59,2.72-2.56,4.7-4.31,4.32  c-1.74-0.38-2.72-3-2.13-5.72c0.54-2.5,2.25-4.37,3.88-4.37c0.15,0,0.29,0.02,0.44,0.05C41.77,16.72,42.75,19.34,42.16,22.06z"/><path d="M42.64,32.23c0.24,1.41,0.97,2.46,2.05,2.96c0.45,0.21,0.92,0.3,1.4,0.3c1.85,0,3.83-1.47,4.93-3.84  c0.64-1.38,0.87-2.85,0.64-4.15c-0.24-1.41-0.97-2.46-2.05-2.96c-1.08-0.5-2.35-0.38-3.58,0.35c-1.14,0.67-2.11,1.8-2.75,3.18  C42.65,29.45,42.42,30.92,42.64,32.23z M44.65,28.7c0.51-1.1,1.28-2,2.15-2.52c0.49-0.29,0.98-0.44,1.43-0.44  c0.27,0,0.52,0.05,0.76,0.16c0.62,0.29,1.05,0.94,1.2,1.85c0.17,1.01-0.02,2.17-0.53,3.27c-0.99,2.15-2.98,3.42-4.34,2.8  c-0.62-0.29-1.05-0.94-1.2-1.85C43.95,30.97,44.14,29.8,44.65,28.7z"/><path d="M27.71,27.93c0.26,0,0.52-0.03,0.77-0.08c1.3-0.28,2.36-1.26,2.96-2.74c0.57-1.39,0.68-3.08,0.31-4.76  c-0.79-3.64-3.47-6.04-6.09-5.47c-1.3,0.28-2.36,1.26-2.96,2.74c-0.57,1.39-0.68,3.08-0.31,4.76c0.37,1.68,1.17,3.18,2.26,4.2  C25.58,27.47,26.65,27.93,27.71,27.93z M24.08,18.18c0.41-1.01,1.09-1.67,1.89-1.84c0.14-0.03,0.29-0.05,0.44-0.05  c1.63,0,3.33,1.87,3.87,4.37c0.3,1.39,0.22,2.77-0.23,3.88c-0.41,1.01-1.09,1.67-1.89,1.84s-1.69-0.14-2.49-0.89  c-0.87-0.82-1.52-2.04-1.82-3.43c0,0,0,0,0,0C23.54,20.67,23.63,19.29,24.08,18.18z"/><path d="M16.38,24.54c-1.08,0.5-1.81,1.55-2.05,2.96c-0.22,1.3,0.01,2.78,0.64,4.15c1.1,2.37,3.08,3.84,4.93,3.84  c0.48,0,0.95-0.1,1.4-0.3c2.17-1,2.79-4.13,1.41-7.11C21.33,25.09,18.55,23.54,16.38,24.54z M20.68,33.82  c-1.36,0.63-3.35-0.65-4.34-2.8c-0.51-1.1-0.7-2.27-0.53-3.27c0.15-0.9,0.58-1.56,1.2-1.85c0.23-0.11,0.49-0.16,0.75-0.16  c1.26,0,2.77,1.18,3.59,2.96C22.34,30.85,22.04,33.19,20.68,33.82z"/><path d="M47.28,5C41.53,5,36.28,7.76,33,12.44C29.72,7.76,24.47,5,18.72,5C9.09,5,1.25,12.83,1.25,22.47  c0,19.96,30.09,37.69,31.37,38.44C32.74,60.97,32.87,61,33,61s0.26-0.03,0.38-0.1c0.08-0.05,2.05-1.19,5-3.23  c0.34-0.23,0.43-0.7,0.19-1.04c-0.24-0.34-0.7-0.43-1.04-0.19c-2.17,1.49-3.82,2.52-4.53,2.95C29.49,57.25,2.75,40.4,2.75,22.47  c0-8.8,7.16-15.97,15.97-15.97c5.61,0,10.71,2.88,13.64,7.7c0.14,0.22,0.38,0.36,0.64,0.36s0.5-0.14,0.64-0.36  c2.93-4.82,8.03-7.7,13.64-7.7c8.8,0,15.97,7.16,15.97,15.97c0,13.09-14.27,25.58-22.78,31.87c-0.33,0.25-0.4,0.72-0.16,1.05  c0.25,0.33,0.71,0.4,1.05,0.16c8.73-6.45,23.39-19.33,23.39-33.07C64.75,12.83,56.91,5,47.28,5z"/></svg>