<svg xmlns="http://www.w3.org/2000/svg" viewBox="0 0 64 80" x="0px" y="0px"><title>Housekeeper-job-avatar-profession-occupation-clean-maid</title><path d="M50.55859,38.14453a2.98406,2.98406,0,0,0-1.09393-.69122l.00311-.007-.34613-.15387,1.86859-1.86859a3.99957,3.99957,0,0,0-.77-6.25781l-.24951-.14942A2.01055,2.01055,0,0,1,49,27.30176v-5.875A19.9978,19.9978,0,0,0,37.01807,3.10449l-.208-.09179a12.04219,12.04219,0,0,0-9.62158.001l-.20508.08985A19.99917,19.99917,0,0,0,15,21.42676v5.875a2.0093,2.0093,0,0,1-.97168,1.71484l-.24756.14942a3.99892,3.99892,0,0,0-.771,6.25781l1.86859,1.86859-.34613.15387A11.01133,11.01133,0,0,0,8,47.499V62H56V49.29425l.22266-.12726a2.99892,2.99892,0,0,0,.63281-4.72558Zm4.67188,9.28613L51.167,49.75293,50.41406,49,54.5,44.91406l.94141.94141a.99963.99963,0,0,1-.21094,1.57519ZM47.293,51.87891,43.12158,47.707a1.00185,1.00185,0,0,1-.00049-1.41406L44,45.41406l5.59827,5.59827-.89124.86658h-.00049A1.021,1.021,0,0,1,47.293,51.87891ZM36.12109,60a1.12143,1.12143,0,0,1-.793-1.91406L38,55.41406,39.58594,57l-2.67188,2.67188A1.11307,1.11307,0,0,1,36.12109,60ZM19.02393,42.55176,16.62134,38.707l4.18426-1.8595,1.74713,3.49427A2.98446,2.98446,0,0,0,25.23584,42H38.76416a2.98446,2.98446,0,0,0,2.68311-1.6582l1.74713-3.49427,3.06048,1.36011a3.03141,3.03141,0,0,0-.42236.5697L43.19824,43.3877l-1.4917,1.49121a2.99687,2.99687,0,0,0-.10833,4.10882l-7.68415,7.68415A3.14144,3.14144,0,0,0,33,58.87891,3.09222,3.09222,0,0,0,33.21686,60H21V49.44141A12.98161,12.98161,0,0,0,19.02393,42.55176Zm15.0625-9.46289-.2295.09082a4.98257,4.98257,0,0,1-3.71533,0l-.22656-.09082A10.94615,10.94615,0,0,1,23,22.876V17a1.001,1.001,0,0,1,1-1h4.68652a8.94187,8.94187,0,0,0,6.36426-2.63574l.49707-.498a1.00359,1.00359,0,0,1,1.26172-.125l3.74512,2.49707a.99778.99778,0,0,1,.44531.832V22.876A10.947,10.947,0,0,1,34.08643,33.08887Zm-4.91309,1.85742.22656.09082a6.9688,6.9688,0,0,0,5.19873,0l.22949-.09082a13.17658,13.17658,0,0,0,1.92249-.96253l4.61408,2.0506L39.6582,39.44727a.9945.9945,0,0,1-.894.55273H25.23584a.9945.9945,0,0,1-.894-.55273l-1.70649-3.41291,4.61463-2.05084A13.1785,13.1785,0,0,0,29.17334,34.94629ZM47.41406,46,51.5,41.91406,53.08594,43.5,49,47.58594ZM46,44.58594l-.77411-.77411,2.343-4.0423a.99477.99477,0,0,1,.73584-.49512,1.05966,1.05966,0,0,1,.13525-.00879.99309.99309,0,0,1,.70459.293l.94141.94141Zm-5,11L39.41406,54l3.58588-3.58588,1.58581,1.58606ZM14.42383,34.00977a1.99908,1.99908,0,0,1,.38623-3.12891l.24756-.14941A4.01744,4.01744,0,0,0,17,27.30176v-5.875A18.00165,18.00165,0,0,1,27.78662,4.93457l.20508-.08984a10.03508,10.03508,0,0,1,8.01514-.001l.208.0918A18.00025,18.00025,0,0,1,47,21.42676v5.875a4.01867,4.01867,0,0,0,1.94141,3.42969l.24951.14941a1.99973,1.99973,0,0,1,.38525,3.12891L47.16364,36.4223l-8.55677-3.80279A12.92967,12.92967,0,0,0,43,22.876V16.07031a2.99464,2.99464,0,0,0-1.33594-2.49609l-3.7456-2.49707a3.0082,3.0082,0,0,0-3.78516.375l-.49707.49805A6.95765,6.95765,0,0,1,28.68652,14H24a3.00328,3.00328,0,0,0-3,3v5.876a12.9283,12.9283,0,0,0,4.39343,9.7434L16.83636,36.4223ZM10,47.499a8.99285,8.99285,0,0,1,4.79944-7.93261l2.52868,4.04589A10.98172,10.98172,0,0,1,19,49.44141V60H10ZM54,60H39.41406l6.5976-6.5976a2.97707,2.97707,0,0,0,4.10943-.10943l1.49121-1.49121L54,50.43719Z"/></svg>