<svg xmlns="http://www.w3.org/2000/svg" viewBox="0 0 72 90" x="0px" y="0px"><title>line</title><g data-name="Layer 25"><path d="M67.34473,29.06543,40.15527,4.59473a6.2109,6.2109,0,0,0-8.31054,0L4.65527,29.06543A5.00287,5.00287,0,0,0,3,32.78125V64a5.00588,5.00588,0,0,0,5,5H64a5.00588,5.00588,0,0,0,5-5V32.78125A5.00287,5.00287,0,0,0,67.34473,29.06543ZM67,64a3.00328,3.00328,0,0,1-3,3H8a3.00328,3.00328,0,0,1-3-3V32.78125a3.00272,3.00272,0,0,1,.99316-2.22949L33.18262,6.08105a4.21178,4.21178,0,0,1,5.63476,0L66.00684,30.55176A3.00272,3.00272,0,0,1,67,32.78125Z"/><path d="M58,29H50a1.00066,1.00066,0,0,0-.98047.80371l-2,10A1,1,0,0,0,48,41h5V62H51a1,1,0,0,0,0,2h6a1,1,0,0,0,0-2H55V41h5a1,1,0,0,0,.98047-1.19629l-2-10A1.00066,1.00066,0,0,0,58,29ZM49.21973,39l1.59961-8h6.36132l1.59961,8Z"/><path d="M36,15a6,6,0,1,0,6,6A6.00657,6.00657,0,0,0,36,15Zm0,10a4,4,0,1,1,4-4A4.004,4.004,0,0,1,36,25Z"/><path d="M40,46.18427V38a5.00588,5.00588,0,0,0-5-5H17a5.00588,5.00588,0,0,0-5,5v8.18427A2.99507,2.99507,0,0,0,10,49v8a3.00328,3.00328,0,0,0,3,3H39a3.00328,3.00328,0,0,0,3-3V49A2.99507,2.99507,0,0,0,40,46.18427ZM17,35H35a3.00328,3.00328,0,0,1,3,3v8H32.81573A2.96457,2.96457,0,0,0,33,45V43a3.00328,3.00328,0,0,0-3-3H22a3.00328,3.00328,0,0,0-3,3v2a2.96485,2.96485,0,0,0,.18433,1H14V38A3.00328,3.00328,0,0,1,17,35Zm4,10V43a1.00067,1.00067,0,0,1,1-1h8a1.00067,1.00067,0,0,1,1,1v2a1.00067,1.00067,0,0,1-1,1H22A1.00067,1.00067,0,0,1,21,45ZM40,57a1.00067,1.00067,0,0,1-1,1H36V56a1,1,0,0,0-2,0v2H28V56a1,1,0,0,0-2,0v2H19V54a1,1,0,0,0-2,0v4H13a1.00067,1.00067,0,0,1-1-1V49a1.00067,1.00067,0,0,1,1-1H39a1.00067,1.00067,0,0,1,1,1Z"/><path d="M15,61a.99943.99943,0,0,0-1,1,1,1,0,0,1-2,0,1,1,0,0,0-2,0,3,3,0,0,0,6,0A.99943.99943,0,0,0,15,61Z"/><path d="M41,61a.99943.99943,0,0,0-1,1,1,1,0,0,1-2,0,1,1,0,0,0-2,0,3,3,0,0,0,6,0A.99943.99943,0,0,0,41,61Z"/></g></svg>