<svg xmlns="http://www.w3.org/2000/svg" version="1.1" viewBox="-5.0 -10.0 110.0 135.0">
 <path d="m75.543 16.82-31.531 33.457c-2.7461-1.7031-6.4102-1.2969-8.7109 1.1406l-1.9023 2.0195c-0.51172 0.54297-0.84766 1.2031-1.0117 1.9141-3.5938-1.418-7.8477-0.61328-10.652 2.3633l-11.43 12.129c-0.76172 0.80859-1.168 1.8672-1.1328 2.9805 0.03125 1.1133 0.49609 2.1445 1.3086 2.9062l16.172 15.242c0.77734 0.73438 1.7891 1.1367 2.8555 1.1367 0.042969 0 0.085938 0 0.125-0.003906 1.1133-0.035157 2.1445-0.49609 2.9102-1.3086l11.43-12.129c1.7812-1.8906 2.7188-4.3594 2.6406-6.957-0.039062-1.3477-0.35547-2.6406-0.91016-3.8281 0.67969-0.20312 1.3242-0.55859 1.8477-1.1133l1.9023-2.0195c1.2734-1.3477 1.9453-3.1133 1.8867-4.9688-0.039063-1.3828-0.48438-2.6914-1.2656-3.793l31.531-33.457c0.76172-0.80859 1.168-1.8672 1.1328-2.9805-0.03125-1.1133-0.49609-2.1445-1.3086-2.9102-1.6719-1.5742-4.3164-1.4961-5.8906 0.17578zm-33.59 59.945-11.43 12.129c-0.52344 0.55859-1.4023 0.58203-1.9648 0.058594l-3.0312-2.8594 3.8086-4.043c0.52734-0.55859 0.5-1.4375-0.058594-1.9648-0.55859-0.52344-1.4375-0.5-1.9609 0.058593l-3.8086 4.043-4.043-3.8086 1.9023-2.0234c0.52734-0.55859 0.5-1.4375-0.058594-1.9648-0.55859-0.52344-1.4375-0.5-1.9609 0.058594l-1.9023 2.0234-1.0117-0.95312 4.7617-5.0547c0.52734-0.55859 0.5-1.4375-0.058593-1.9648-0.55859-0.52344-1.4375-0.5-1.9609 0.058594l-4.7617 5.0547-2.0234-1.9062c-0.26953-0.25391-0.42578-0.59766-0.43359-0.96875-0.011719-0.37109 0.125-0.72266 0.37891-0.99219l11.43-12.129c1.3633-1.4492 3.207-2.1797 5.0547-2.1797 1.7109 0 3.4219 0.625 4.7617 1.8867l8.0859 7.6211c1.3477 1.2734 2.125 2.9922 2.1797 4.8477 0.054688 1.8555-0.61328 3.6172-1.8867 4.9688zm5.4805-13.918-1.9023 2.0195c-0.52344 0.55859-1.4062 0.58203-1.9648 0.058593l-8.0859-7.6211c-0.26953-0.25391-0.42578-0.59766-0.43359-0.96875-0.011719-0.37109 0.12109-0.72266 0.37891-0.99609l1.9023-2.0195c1.5781-1.6719 4.2227-1.75 5.8906-0.17578l4.043 3.8086c0.80859 0.76172 1.2734 1.7969 1.3086 2.9102 0.03125 1.1133-0.36719 2.1719-1.1328 2.9805zm32.152-42.219-31.434 33.355-2.0195-1.9062 31.434-33.355c0.52344-0.55469 1.4062-0.58203 1.9648-0.058594 0.26953 0.25391 0.42578 0.59766 0.43359 0.96875 0.011718 0.37109-0.125 0.72266-0.37891 0.99219z"/>
 <path d="m62.5 80.555c-1.9648 0-4.168-4.1562-4.168-9.7227 0-0.76562-0.62109-1.3906-1.3906-1.3906-0.76953 0-1.3906 0.62109-1.3906 1.3906 0 5.5625-2.1992 9.7227-4.168 9.7227-0.76953 0-1.3906 0.62109-1.3906 1.3906 0 0.76563 0.62109 1.3906 1.3906 1.3906 1.9648 0 4.168 4.1562 4.168 9.7227 0 0.76562 0.62109 1.3906 1.3906 1.3906 0.76953 0 1.3906-0.62109 1.3906-1.3906 0-5.5625 2.1992-9.7227 4.168-9.7227 0.76953 0 1.3906-0.62109 1.3906-1.3906 0-0.76562-0.62109-1.3906-1.3906-1.3906zm-5.5547 4.8164c-0.60156-1.4297-1.3711-2.5977-2.2695-3.4258 0.89844-0.82812 1.668-1.9961 2.2695-3.4258 0.60156 1.4297 1.3711 2.5977 2.2695 3.4258-0.89844 0.82813-1.668 1.9961-2.2695 3.4258z"/>
 <path d="m27.777 19.445c1.9648 0 4.168 4.1562 4.168 9.7227 0 0.76562 0.62109 1.3906 1.3906 1.3906 0.76953 0 1.3906-0.62109 1.3906-1.3906 0-5.5625 2.1992-9.7227 4.168-9.7227 0.76953 0 1.3906-0.62109 1.3906-1.3906 0-0.76563-0.62109-1.3906-1.3906-1.3906-1.9648 0-4.168-4.1562-4.168-9.7227 0-0.76562-0.62109-1.3906-1.3906-1.3906-0.76953 0-1.3906 0.62109-1.3906 1.3906 0 5.5625-2.1992 9.7227-4.168 9.7227-0.76953 0-1.3906 0.62109-1.3906 1.3906 0 0.76562 0.62109 1.3906 1.3906 1.3906zm5.5547-4.8164c0.60156 1.4297 1.3711 2.5977 2.2695 3.4258-0.89844 0.82812-1.668 1.9961-2.2695 3.4258-0.60156-1.4297-1.3711-2.5977-2.2695-3.4258 0.89844-0.82813 1.668-1.9961 2.2695-3.4258z"/>
 <path d="m11.109 58.332c0.76953 0 1.3906-0.62109 1.3906-1.3906 0-3.1797 1.4648-5.5547 2.7773-5.5547 0.76953 0 1.3906-0.62109 1.3906-1.3906 0-0.76562-0.62109-1.3906-1.3906-1.3906-1.3125 0-2.7773-2.375-2.7773-5.5547 0-0.76562-0.62109-1.3906-1.3906-1.3906s-1.3906 0.62109-1.3906 1.3906c0 3.1797-1.4648 5.5547-2.7773 5.5547-0.76953 0-1.3906 0.62109-1.3906 1.3906 0 0.76562 0.62109 1.3906 1.3906 1.3906 1.3125 0 2.7773 2.375 2.7773 5.5547 0 0.76562 0.62109 1.3906 1.3906 1.3906zm0-9.707c0.3125 0.52344 0.66406 0.98828 1.0547 1.375-0.39062 0.39062-0.74609 0.85156-1.0547 1.375-0.3125-0.52344-0.66406-0.98828-1.0547-1.375 0.39062-0.39062 0.74609-0.85156 1.0547-1.375z"/>
 <path d="m93.055 34.723c-1.3125 0-2.7773-2.375-2.7773-5.5547 0-0.76562-0.62109-1.3906-1.3906-1.3906s-1.3906 0.62109-1.3906 1.3906c0 3.1797-1.4648 5.5547-2.7773 5.5547-0.76953 0-1.3906 0.62109-1.3906 1.3906 0 0.76562 0.62109 1.3906 1.3906 1.3906 1.3125 0 2.7773 2.375 2.7773 5.5547 0 0.76562 0.62109 1.3906 1.3906 1.3906s1.3906-0.62109 1.3906-1.3906c0-3.1797 1.4648-5.5547 2.7773-5.5547 0.76953 0 1.3906-0.62109 1.3906-1.3906 0-0.76562-0.62109-1.3906-1.3906-1.3906zm-4.1641 2.7656c-0.3125-0.52344-0.66406-0.98828-1.0547-1.375 0.39062-0.39062 0.74609-0.85156 1.0547-1.375 0.3125 0.52344 0.66406 0.98828 1.0547 1.375-0.39062 0.39062-0.74609 0.85156-1.0547 1.375z"/>
 <path d="m72.223 55.555c0.76953 0 1.3906-0.62109 1.3906-1.3906v-1.3906c0-0.76563-0.62109-1.3906-1.3906-1.3906-0.76953 0-1.3906 0.62109-1.3906 1.3906v1.3906c0 0.76563 0.62109 1.3906 1.3906 1.3906z"/>
 <path d="m69.445 55.555h-1.3906c-0.76953 0-1.3906 0.62109-1.3906 1.3906 0 0.76563 0.62109 1.3906 1.3906 1.3906h1.3906c0.76953 0 1.3906-0.62109 1.3906-1.3906 0-0.76562-0.62109-1.3906-1.3906-1.3906z"/>
 <path d="m72.223 58.332c-0.76953 0-1.3906 0.62109-1.3906 1.3906v1.3906c0 0.76562 0.62109 1.3906 1.3906 1.3906 0.76953 0 1.3906-0.62109 1.3906-1.3906v-1.3906c0-0.76562-0.62109-1.3906-1.3906-1.3906z"/>
 <path d="m76.391 55.555h-1.3906c-0.76953 0-1.3906 0.62109-1.3906 1.3906 0 0.76563 0.62109 1.3906 1.3906 1.3906h1.3906c0.76953 0 1.3906-0.62109 1.3906-1.3906 0-0.76562-0.62109-1.3906-1.3906-1.3906z"/>
 <path d="m58.332 15.277c0.76953 0 1.3906-0.62109 1.3906-1.3906v-1.3906c0-0.76562-0.62109-1.3906-1.3906-1.3906s-1.3906 0.62109-1.3906 1.3906v1.3906c0 0.76562 0.62109 1.3906 1.3906 1.3906z"/>
 <path d="m54.168 18.055h1.3906c0.76953 0 1.3906-0.62109 1.3906-1.3906 0-0.76562-0.62109-1.3906-1.3906-1.3906h-1.3906c-0.76953 0-1.3906 0.62109-1.3906 1.3906 0 0.76563 0.62109 1.3906 1.3906 1.3906z"/>
 <path d="m58.332 18.055c-0.76953 0-1.3906 0.62109-1.3906 1.3906v1.3906c0 0.76562 0.62109 1.3906 1.3906 1.3906s1.3906-0.62109 1.3906-1.3906v-1.3906c0-0.76562-0.62109-1.3906-1.3906-1.3906z"/>
 <path d="m61.109 18.055h1.3906c0.76953 0 1.3906-0.62109 1.3906-1.3906 0-0.76562-0.62109-1.3906-1.3906-1.3906h-1.3906c-0.76953 0-1.3906 0.62109-1.3906 1.3906 0 0.76563 0.62109 1.3906 1.3906 1.3906z"/>
</svg>