<svg xmlns="http://www.w3.org/2000/svg" viewBox="0 0 72 90" x="0px" y="0px"><title>line</title><g data-name="Layer 25"><path d="M58.5791,43.271A16.99443,16.99443,0,0,0,27,52c0,.32275.01172.65234.03613,1H27a8,8,0,0,0,0,16H56a12.99307,12.99307,0,0,0,2.5791-25.729ZM56,67H27a6,6,0,0,1,0-12,6.076,6.076,0,0,1,.99121.08936.9993.9993,0,0,0,1.1543-1.1167A14.98688,14.98688,0,0,1,57.0752,44.66211a.99721.99721,0,0,0,.71.49658A10.993,10.993,0,0,1,56,67Z"/><path d="M52,35.77979a.99974.99974,0,0,0,1-1V14a1,1,0,0,0-2,0V34.77979A.99974.99974,0,0,0,52,35.77979Z"/><path d="M17.46,57H12a7.00818,7.00818,0,0,1-7-7V14a1,1,0,0,0-2,0V50a9.01016,9.01016,0,0,0,9,9h5.46a1,1,0,0,0,0-2Z"/><path d="M35,29H26a1,1,0,0,0,0,2h9A15.01672,15.01672,0,0,0,50,16a1,1,0,0,0-2,0A13.01474,13.01474,0,0,1,35,29Z"/><path d="M6,25a6.00657,6.00657,0,0,0,6,6h6a1,1,0,0,0,0-2H12a4.00427,4.00427,0,0,1-4-4,1,1,0,0,0-2,0Z"/><path d="M16,23c2.36523,0,5,4.51758,5,11a1,1,0,0,0,2,0c0-6.48242,2.63477-11,5-11a1,1,0,0,0,0-2c-2.36523,0-5-4.51758-5-11a1,1,0,0,0-2,0c0,6.48242-2.63477,11-5,11a1,1,0,0,0,0,2Zm6-6.209A10.66351,10.66351,0,0,0,25.25781,22,10.66351,10.66351,0,0,0,22,27.209,10.66351,10.66351,0,0,0,18.74219,22,10.66351,10.66351,0,0,0,22,16.791Z"/><path d="M37,19a3,3,0,1,0-3-3A3.00328,3.00328,0,0,0,37,19Zm0-4a1,1,0,1,1-1,1A1.001,1.001,0,0,1,37,15Z"/><path d="M43,11a4,4,0,1,0-4-4A4.00427,4.00427,0,0,0,43,11Zm0-6a2,2,0,1,1-2,2A2.00229,2.00229,0,0,1,43,5Z"/><path d="M12,41a3,3,0,1,0-3-3A3.00328,3.00328,0,0,0,12,41Zm0-4a1,1,0,1,1-1,1A1.001,1.001,0,0,1,12,37Z"/><path d="M18,52a4,4,0,1,0-4-4A4.00427,4.00427,0,0,0,18,52Zm0-6a2,2,0,1,1-2,2A2.00229,2.00229,0,0,1,18,46Z"/><path d="M8,6A.99974.99974,0,0,0,9,5V4A1,1,0,0,0,7,4V5A.99974.99974,0,0,0,8,6Z"/><path d="M5,8H6A1,1,0,0,0,6,6H5A1,1,0,0,0,5,8Z"/><path d="M9,10V9A1,1,0,0,0,7,9v1a1,1,0,0,0,2,0Z"/><path d="M10,8h1a1,1,0,0,0,0-2H10a1,1,0,0,0,0,2Z"/><path d="M61,29a.99974.99974,0,0,0,1-1V27a1,1,0,0,0-2,0v1A.99974.99974,0,0,0,61,29Z"/><path d="M58,31h1a1,1,0,0,0,0-2H58a1,1,0,0,0,0,2Z"/><path d="M61,31a.99974.99974,0,0,0-1,1v1a1,1,0,0,0,2,0V32A.99974.99974,0,0,0,61,31Z"/><path d="M63,31h1a1,1,0,0,0,0-2H63a1,1,0,0,0,0,2Z"/><path d="M40,44a.99974.99974,0,0,0,1-1V42a1,1,0,0,0-2,0v1A.99974.99974,0,0,0,40,44Z"/><path d="M38,44H37a1,1,0,0,0,0,2h1a1,1,0,0,0,0-2Z"/><path d="M40,46a.99974.99974,0,0,0-1,1v1a1,1,0,0,0,2,0V47A.99974.99974,0,0,0,40,46Z"/><path d="M43,44H42a1,1,0,0,0,0,2h1a1,1,0,0,0,0-2Z"/></g></svg>