<svg xmlns="http://www.w3.org/2000/svg" viewBox="0 0 72 90" x="0px" y="0px"><title>line</title><g data-name="Layer 25"><path d="M43,50V42a3.00328,3.00328,0,0,0-3-3H38.23633a.9936.9936,0,0,1-.89453-.55273l-.89453-1.78907A2.98517,2.98517,0,0,0,33.76367,35H12.23633a2.98517,2.98517,0,0,0-2.6836,1.6582L8.6582,38.44727A.9936.9936,0,0,1,7.76367,39H6a3.00328,3.00328,0,0,0-3,3v8a3.00328,3.00328,0,0,0,3,3v8a2.98694,2.98694,0,0,0,5,2.21973,2.95335,2.95335,0,0,0,4,0,2.95335,2.95335,0,0,0,4,0,2.95335,2.95335,0,0,0,4,0,2.95335,2.95335,0,0,0,4,0,2.95335,2.95335,0,0,0,4,0,2.95335,2.95335,0,0,0,4,0A2.98694,2.98694,0,0,0,40,61V53A3.00328,3.00328,0,0,0,43,50ZM9,62a1.00067,1.00067,0,0,1-1-1V53h2v8A1.00067,1.00067,0,0,1,9,62Zm4,0a1.00067,1.00067,0,0,1-1-1V53h2v8A1.00067,1.00067,0,0,1,13,62Zm4,0a1.00067,1.00067,0,0,1-1-1V53h2v8A1.00067,1.00067,0,0,1,17,62Zm4,0a1.00067,1.00067,0,0,1-1-1V53h2v8A1.00067,1.00067,0,0,1,21,62Zm4,0a1.00067,1.00067,0,0,1-1-1V53h2v8A1.00067,1.00067,0,0,1,25,62Zm4,0a1.00067,1.00067,0,0,1-1-1V53h2v8A1.00067,1.00067,0,0,1,29,62Zm4,0a1.00067,1.00067,0,0,1-1-1V53h2v8A1.00067,1.00067,0,0,1,33,62Zm5-1a1,1,0,0,1-2,0V53h2Zm3-11a1.00067,1.00067,0,0,1-1,1H6a1.00067,1.00067,0,0,1-1-1V42a1.00067,1.00067,0,0,1,1-1H7.76367a2.98517,2.98517,0,0,0,2.6836-1.6582l.89453-1.78907A.9936.9936,0,0,1,12.23633,37H33.76367a.9936.9936,0,0,1,.89453.55273l.89453,1.78907A2.98517,2.98517,0,0,0,38.23633,41H40a1.00067,1.00067,0,0,1,1,1Z"/><path d="M33,39H27a1,1,0,0,0,0,2h6a1,1,0,0,0,0-2Z"/><path d="M23,39H21a1,1,0,0,0,0,2h2a1,1,0,0,0,0-2Z"/><path d="M18,39H17a1,1,0,0,0,0,2h1a1,1,0,0,0,0-2Z"/><path d="M61.89746,35.49121A10.758,10.758,0,0,0,62,34,11.01245,11.01245,0,0,0,51,23a10.739,10.739,0,0,0-1.87793.166A14.99956,14.99956,0,0,0,22,32c0,.37109.01074.73145.04395,1.0918a1.00031,1.00031,0,0,0,1.99218-.1836C24.00879,32.6084,24,32.30859,24,32a13.00049,13.00049,0,0,1,23.84668-7.167A.99657.99657,0,0,0,48.917,25.252,8.79638,8.79638,0,0,1,51,25a8.99975,8.99975,0,0,1,8.81934,10.794.99853.99853,0,0,0,.47656,1.05957A13.48842,13.48842,0,0,1,53.5,62H41.58984a1,1,0,0,0,0,2H53.5a15.48747,15.48747,0,0,0,8.39746-28.50879Z"/><path d="M4,26c1.416,0,3,2.99316,3,7a1,1,0,0,0,2,0c0-4.00684,1.584-7,3-7a1,1,0,0,0,0-2c-1.416,0-3-2.99316-3-7a1,1,0,0,0-2,0c0,4.00684-1.584,7-3,7a1,1,0,0,0,0,2Zm4-3.4668A7.05761,7.05761,0,0,0,9.63477,25,7.05761,7.05761,0,0,0,8,27.4668,7.05761,7.05761,0,0,0,6.36523,25,7.05761,7.05761,0,0,0,8,22.5332Z"/><path d="M59,18c1.416,0,3,2.99316,3,7a1,1,0,0,0,2,0c0-4.00684,1.584-7,3-7a1,1,0,0,0,0-2c-1.416,0-3-2.99316-3-7a1,1,0,0,0-2,0c0,4.00684-1.584,7-3,7a1,1,0,0,0,0,2Zm4-3.4668A7.05761,7.05761,0,0,0,64.63477,17,7.05761,7.05761,0,0,0,63,19.4668,7.05761,7.05761,0,0,0,61.36523,17,7.05761,7.05761,0,0,0,63,14.5332Z"/><path d="M18,16a.99943.99943,0,0,0,1-1V14a1,1,0,0,0-2,0v1A.99943.99943,0,0,0,18,16Z"/><path d="M18,18a.99943.99943,0,0,0-1,1v1a1,1,0,0,0,2,0V19A.99943.99943,0,0,0,18,18Z"/><path d="M20,18h1a1,1,0,0,0,0-2H20a1,1,0,0,0,0,2Z"/><path d="M15,18h1a1,1,0,0,0,0-2H15a1,1,0,0,0,0,2Z"/><path d="M54,44a.99943.99943,0,0,0-1,1v1a1,1,0,0,0,2,0V45A.99943.99943,0,0,0,54,44Z"/><path d="M53,51a1,1,0,0,0,2,0V50a1,1,0,0,0-2,0Z"/><path d="M56,49h1a1,1,0,0,0,0-2H56a1,1,0,0,0,0,2Z"/><path d="M52,47H51a1,1,0,0,0,0,2h1a1,1,0,0,0,0-2Z"/></g></svg>