<svg xmlns="http://www.w3.org/2000/svg" viewBox="0 0 72 90" x="0px" y="0px"><title>line</title><g data-name="Layer 25"><path d="M36,5a1,1,0,0,0,0-2A33.03734,33.03734,0,0,0,3,36a1,1,0,0,0,2,0A31.035,31.035,0,0,1,36,5Z"/><path d="M68,35a.99974.99974,0,0,0-1,1A31.035,31.035,0,0,1,36,67a1,1,0,0,0,0,2A33.03734,33.03734,0,0,0,69,36,.99974.99974,0,0,0,68,35Z"/><path d="M45.96,49.96582a2.99772,2.99772,0,0,0,.7041-2.38965l-.542-3.79834A10.27109,10.27109,0,0,0,40.37872,36a10.27149,10.27149,0,0,0,5.74335-7.77832l.542-3.79785A3.00052,3.00052,0,0,0,43.69434,21H28.30566a3.00052,3.00052,0,0,0-2.96972,3.42383l.542,3.79834A10.27109,10.27109,0,0,0,31.62128,36a10.27149,10.27149,0,0,0-5.74335,7.77832l-.542,3.79785A3.00052,3.00052,0,0,0,28.30566,51H43.69434A2.99755,2.99755,0,0,0,45.96,49.96582ZM27.8584,27.93945l-.542-3.79785A.99977.99977,0,0,1,28.30566,23H43.69434a.99977.99977,0,0,1,.98925,1.1416l-.542,3.79736a8.22432,8.22432,0,0,1-16.2832.00049Zm-.30762,20.71582a.9833.9833,0,0,1-.23437-.79687l.542-3.79736a8.22432,8.22432,0,0,1,16.2832-.00049l.542,3.79785A.99977.99977,0,0,1,43.69434,49H28.30566A.98554.98554,0,0,1,27.55078,48.65527Z"/><path d="M36,7a.99974.99974,0,0,0-1,1v4a1,1,0,0,0,2,0V8A.99974.99974,0,0,0,36,7Z"/><path d="M22.86621,11.25146a1.00016,1.00016,0,1,0-1.73242,1l1,1.73194a1.00016,1.00016,0,1,0,1.73242-1Z"/><path d="M13.9834,22.13379l-1.73242-1a1.00016,1.00016,0,0,0-1,1.73242l1.73242,1a1.00016,1.00016,0,1,0,1-1.73242Z"/><path d="M12.9834,48.13379l-1.73242,1a1.00016,1.00016,0,0,0,1,1.73242l1.73242-1a1.00016,1.00016,0,1,0-1-1.73242Z"/><path d="M23.5,57.65039a.99969.99969,0,0,0-1.36621.36621l-1,1.73194a1.00016,1.00016,0,0,0,1.73242,1l1-1.73194A1,1,0,0,0,23.5,57.65039Z"/><path d="M49.13379,60.74854a1.00016,1.00016,0,1,0,1.73242-1l-1-1.73194a1.00016,1.00016,0,1,0-1.73242,1Z"/><path d="M58.0166,49.86621l1.73242,1a1.00016,1.00016,0,0,0,1-1.73242l-1.73242-1a1.00016,1.00016,0,1,0-1,1.73242Z"/><path d="M58.51758,24a.99443.99443,0,0,0,.499-.13379l1.73242-1a1.00016,1.00016,0,0,0-1-1.73242l-1.73242,1A1,1,0,0,0,58.51758,24Z"/><path d="M48.5,14.34961a1.0006,1.0006,0,0,0,1.36621-.36621l1-1.73194a1.00016,1.00016,0,1,0-1.73242-1l-1,1.73194A1,1,0,0,0,48.5,14.34961Z"/><path d="M13,36a.99974.99974,0,0,0-1-1H8a1,1,0,0,0,0,2h4A.99974.99974,0,0,0,13,36Z"/><path d="M35,60v4a1,1,0,0,0,2,0V60a1,1,0,0,0-2,0Z"/><path d="M59,36a.99974.99974,0,0,0,1,1h4a1,1,0,0,0,0-2H60A.99974.99974,0,0,0,59,36Z"/><path d="M42,46H30a1,1,0,0,0,0,2H42a1,1,0,0,0,0-2Z"/><path d="M32,45h8a1,1,0,0,0,0-2H32a1,1,0,0,0,0,2Z"/><path d="M35,42h2a1,1,0,0,0,0-2H35a1,1,0,0,0,0,2Z"/><path d="M38,31H34a1,1,0,0,0,0,2h4a1,1,0,0,0,0-2Z"/></g></svg>