<svg xmlns="http://www.w3.org/2000/svg" viewBox="0 0 72 90" x="0px" y="0px"><title>line</title><g data-name="Layer 25"><path d="M67.34473,29.06494,40.15576,4.59473a6.21218,6.21218,0,0,0-8.31152,0L4.65527,29.06494A5.00769,5.00769,0,0,0,3,32.78125V64a5.00588,5.00588,0,0,0,5,5H64a5.00588,5.00588,0,0,0,5-5V32.78125A5.00769,5.00769,0,0,0,67.34473,29.06494ZM67,64a3.00328,3.00328,0,0,1-3,3H8a3.00328,3.00328,0,0,1-3-3V32.78125a3.0052,3.0052,0,0,1,.99316-2.23l27.189-24.47022a4.21306,4.21306,0,0,1,5.63574,0l27.189,24.47022A3.0052,3.0052,0,0,1,67,32.78125Z"/><path d="M41,44a2.96457,2.96457,0,0,0-1,.18427V43a5.00588,5.00588,0,0,0-5-5H17a5.00588,5.00588,0,0,0-5,5v1.18427A2.96457,2.96457,0,0,0,11,44a3.00328,3.00328,0,0,0-3,3V59a5.00588,5.00588,0,0,0,5,5H39a5.00588,5.00588,0,0,0,5-5V47A3.00328,3.00328,0,0,0,41,44ZM14,54H25v2a1,1,0,0,0,2,0V54H38v3a1.0013,1.0013,0,0,1-1,1H15a1.0013,1.0013,0,0,1-1-1Zm0-11a3.00328,3.00328,0,0,1,3-3h8v8a1,1,0,0,0,2,0V40h8a3.00328,3.00328,0,0,1,3,3v9H14V43ZM42,59a3.00328,3.00328,0,0,1-3,3H13a3.00328,3.00328,0,0,1-3-3V47a1,1,0,0,1,2,0V57a3.00328,3.00328,0,0,0,3,3H37a3.00328,3.00328,0,0,0,3-3V47a1,1,0,0,1,2,0Z"/><path d="M58,29H50a.99978.99978,0,0,0-.98047.80371l-2,10A1,1,0,0,0,48,41h5V62H51a1,1,0,0,0,0,2h6a1,1,0,0,0,0-2H55V41h5a1,1,0,0,0,.98047-1.19629l-2-10A.99978.99978,0,0,0,58,29ZM49.21973,39l1.60009-8h6.36036l1.60009,8Z"/><path d="M36,27a6,6,0,1,0-6-6A6.00657,6.00657,0,0,0,36,27Zm0-10a4,4,0,1,1-4,4A4.00458,4.00458,0,0,1,36,17Z"/></g></svg>