<svg xmlns="http://www.w3.org/2000/svg" version="1.1" viewBox="-5.0 -10.0 110.0 135.0">
 <path d="m75.52 81.828c-7.3008 5.8633-16.125 8.9609-25.52 8.9609-18.691 0-34.945-12.633-39.527-30.719-0.17969-0.70312-0.89844-1.1289-1.5977-0.95312-0.70312 0.17969-1.1289 0.89453-0.95312 1.6016 4.8789 19.254 22.184 32.703 42.078 32.703 10 0 19.395-3.2969 27.164-9.5391 0.56641-0.45312 0.65625-1.2812 0.20313-1.8477-0.45313-0.56641-1.2852-0.65625-1.8477-0.20312z"/>
 <path d="m24.48 18.172c7.3008-5.8633 16.125-8.9609 25.52-8.9609 20.398 0 37.777 15.223 40.434 35.406 0.085937 0.66406 0.65234 1.1445 1.3047 1.1445 0.054688 0 0.11328-0.003907 0.17188-0.011719 0.72266-0.09375 1.2266-0.75391 1.1328-1.4766-2.8242-21.492-21.328-37.699-43.039-37.699-10 0-19.395 3.2969-27.164 9.5391-0.56641 0.45312-0.65625 1.2812-0.20312 1.8477 0.45703 0.56641 1.2852 0.65625 1.8516 0.20312z"/>
 <path d="m41.207 23.801c0.6875-0.23047 1.0625-0.97656 0.83203-1.6641-0.23047-0.69141-0.97656-1.0625-1.6641-0.83203-7.3438 2.4531-13.406 7.5859-17.074 14.457-0.33984 0.64062-0.097656 1.4375 0.54297 1.7812 0.19531 0.10547 0.41016 0.15625 0.61719 0.15625 0.46875 0 0.92578-0.25391 1.1641-0.69531 3.3477-6.2734 8.8828-10.965 15.586-13.203z"/>
 <path d="m32.117 74.418c0.23437 0.17188 0.50781 0.25391 0.77734 0.25391 0.40625 0 0.80469-0.1875 1.0625-0.53906 0.42969-0.58594 0.30078-1.4102-0.28516-1.8398-1.4141-1.0352-2.7266-2.1992-3.8945-3.4531-0.49219-0.53125-1.3281-0.55859-1.8594-0.066406-0.53125 0.49609-0.5625 1.3281-0.066407 1.8594 1.2812 1.375 2.7148 2.6484 4.2656 3.7812z"/>
 <path d="m38.695 75.219c-0.66406-0.29688-1.4414 0-1.7383 0.66406-0.29688 0.66406 0 1.4414 0.66406 1.7383 3.918 1.7539 8.0859 2.6406 12.379 2.6406 0.72656 0 1.3164-0.58984 1.3164-1.3164 0-0.72656-0.58984-1.3164-1.3164-1.3164-3.9219 0-7.7266-0.8125-11.305-2.4102z"/>
 <path d="m78.105 44.395c0.10547 0 0.21094-0.011719 0.31641-0.039062 0.70703-0.17188 1.1367-0.88672 0.96484-1.5938-1.2422-5.0625-3.793-9.7422-7.375-13.535-0.5-0.52734-1.3281-0.55078-1.8594-0.050781-0.52734 0.5-0.55078 1.332-0.050782 1.8594 3.2695 3.4648 5.5977 7.7344 6.7305 12.355 0.14844 0.60156 0.6875 1.0039 1.2773 1.0039z"/>
 <path d="m71.051 53.949c0-11.609-9.4453-21.051-21.051-21.051-11.609 0-21.051 9.4453-21.051 21.051v3.9492c0 2.1758 1.7695 3.9492 3.9492 3.9492h34.211c2.1758 0 3.9492-1.7695 3.9492-3.9492v-3.9492zm-2.6289 3.9453c0 0.72656-0.58984 1.3164-1.3164 1.3164h-34.211c-0.72656 0-1.3164-0.58984-1.3164-1.3164v-3.9492c0-10.156 8.2617-18.422 18.422-18.422 10.156 0 18.422 8.2617 18.422 18.422z"/>
 <path d="m71.051 64.473c0-0.72656-0.58984-1.3164-1.3164-1.3164h-39.473c-0.72656 0-1.3164 0.58984-1.3164 1.3164 0 0.72656 0.58984 1.3164 1.3164 1.3164h39.473c0.72656 0 1.3164-0.58984 1.3164-1.3164z"/>
 <path d="m51.316 31.578c0.72656 0 1.3164-0.58984 1.3164-1.3164 0-0.72656-0.58984-1.3164-1.3164-1.3164h-2.6328c-0.72656 0-1.3164 0.58984-1.3164 1.3164 0 0.72656 0.58984 1.3164 1.3164 1.3164z"/>
 <path d="m93.422 56.434c0-6.1523-3.7812-13.012-9.2109-13.012-5.4258 0-9.2109 6.8594-9.2109 13.012 0 4.4609 1.9922 8.1016 5.2617 9.7422v9.375c0 1.2383-0.19922 2.4648-0.58984 3.6367-0.48047 1.4453-0.72656 2.9492-0.72656 4.4688v4.5c0 2.9023 2.3594 5.2617 5.2617 5.2617 2.9023 0 5.2617-2.3594 5.2617-5.2617v-4.5c0-1.5234-0.24609-3.0273-0.72656-4.4688-0.39063-1.1758-0.58984-2.3984-0.58984-3.6367v-9.375c3.2695-1.6406 5.2617-5.2852 5.2617-9.7422zm-7.0391 7.6484c-0.51562 0.19141-0.85547 0.68359-0.85547 1.2344v10.234c0 1.5234 0.24609 3.0273 0.72656 4.4688 0.39062 1.1758 0.58984 2.3984 0.58984 3.6367v4.5c0 1.4492-1.1797 2.6328-2.6328 2.6328-1.4492 0-2.6328-1.1797-2.6328-2.6328v-4.5c0-1.2383 0.19922-2.4648 0.58984-3.6367 0.48047-1.4453 0.72656-2.9492 0.72656-4.4688v-10.234c0-0.55078-0.33984-1.043-0.85547-1.2344-2.7578-1.0234-4.4062-3.8828-4.4062-7.6484 0-5.3359 3.1953-10.379 6.5781-10.379 3.3828 0 6.5781 5.043 6.5781 10.379 0 3.7656-1.6484 6.625-4.4062 7.6484z"/>
 <path d="m13.156 56.867c0.69922 0.63281 1.6172 1.0273 2.6328 1.0273 1.0156 0 1.9297-0.39453 2.6328-1.0273 0.69922 0.63281 1.6172 1.0273 2.6328 1.0273 2.1758 0 3.9492-1.7695 3.9492-3.9492v-8.3672c0-3.625-1.293-6.6641-3.6367-8.5586-1.0195-0.82422-1.625-2.2188-1.625-3.7344v-8.8359c0-1.2383 0.19922-2.4648 0.58984-3.6367 0.48047-1.4453 0.72656-2.9492 0.72656-4.4688v-4.5c0-2.9023-2.3594-5.2617-5.2617-5.2617s-5.2617 2.3594-5.2617 5.2617v4.5c0 1.5234 0.24609 3.0273 0.72656 4.4688 0.39062 1.1758 0.58984 2.3984 0.58984 3.6367v8.8359c0 1.5156-0.60937 2.9102-1.625 3.7344-2.3438 1.8945-3.6367 4.9336-3.6367 8.5586v8.3672c0 2.1758 1.7695 3.9492 3.9492 3.9492 1.0156 0 1.9297-0.39453 2.6328-1.0273zm-3.9453-2.918v-8.3672c0-2.8125 0.94531-5.1289 2.6602-6.5117 1.6562-1.3359 2.6055-3.4453 2.6055-5.7812v-8.8359c0-1.5234-0.24609-3.0273-0.72656-4.4688-0.39062-1.1758-0.58984-2.3984-0.58984-3.6367v-4.5c0-1.4492 1.1797-2.6328 2.6328-2.6328s2.6328 1.1797 2.6328 2.6328v4.5c0 1.2383-0.19922 2.4648-0.58984 3.6367-0.48047 1.4453-0.72656 2.9492-0.72656 4.4688v8.8359c0 2.3359 0.94922 4.4453 2.6055 5.7812 1.7148 1.3828 2.6602 3.6953 2.6602 6.5117v8.3672c0 0.72656-0.58984 1.3164-1.3164 1.3164-0.72656 0-1.3164-0.58984-1.3164-1.3164v-8.3672c0-0.72656-0.58984-1.3164-1.3164-1.3164-0.72656 0-1.3164 0.58984-1.3164 1.3164v8.3672c0 0.72656-0.58984 1.3164-1.3164 1.3164-0.72656 0-1.3164-0.58984-1.3164-1.3164v-8.3672c0-0.72656-0.58984-1.3164-1.3164-1.3164-0.72656 0-1.3164 0.58984-1.3164 1.3164v8.3672c0 0.72656-0.58984 1.3164-1.3164 1.3164-0.72656 0-1.3164-0.58984-1.3164-1.3164z"/>
</svg>