<svg xmlns="http://www.w3.org/2000/svg" viewBox="0 0 72 90" x="0px" y="0px"><title>line</title><g data-name="Layer 25"><path d="M48.67188,15.84277A19.00068,19.00068,0,1,0,24.6875,45.2666,8.38241,8.38241,0,0,1,28,52a5.00588,5.00588,0,0,0,5,5h6a5.00588,5.00588,0,0,0,5-5,8.30288,8.30288,0,0,1,3.26514-6.69922,19.00073,19.00073,0,0,0,1.40674-29.458ZM46.07861,43.69141A10.30689,10.30689,0,0,0,42,52a3.00328,3.00328,0,0,1-3,3H33a3.0038,3.0038,0,0,1-3-3.00244,10.39122,10.39122,0,0,0-4.12061-8.3374,17.002,17.002,0,0,1,8.18067-30.55274,17.87477,17.87477,0,0,1,1.96289-.10888,16.80468,16.80468,0,0,1,11.31445,4.334,17.00134,17.00134,0,0,1-1.25879,26.35889Z"/><path d="M42,59a1,1,0,0,0-1,1v2a3.00328,3.00328,0,0,1-3,3H34a3.00328,3.00328,0,0,1-3-3V60a1,1,0,0,0-2,0v2a5.00588,5.00588,0,0,0,5,5h4a5.00588,5.00588,0,0,0,5-5V60A1,1,0,0,0,42,59Z"/><path d="M36,14a1,1,0,0,0,0,2A14.01572,14.01572,0,0,1,50,30a1,1,0,0,0,2,0A16.01833,16.01833,0,0,0,36,14Z"/><path d="M41,25H33a1.00123,1.00123,0,0,0-.92871.62842l-2,5a1.00174,1.00174,0,0,0,.11426.95166l2.70068,3.792-.93213,5.59229a.99991.99991,0,0,0,1.64209.91943l7.05957-6.12891a.99968.99968,0,0,0,.23877-1.20215L39.14014,31.044l2.71728-4.5293A1.00009,1.00009,0,0,0,41,25Zm-3.85742,5.48535a1.001,1.001,0,0,0-.03711.96192l1.65332,3.30615-4.375,3.79834.543-3.2583a.99968.99968,0,0,0-.17188-.74463l-2.62353-3.68408L33.67725,27h5.55664Z"/><path d="M12,31c0-6.48242,2.63525-11,5-11a1,1,0,0,0,0-2c-2.36475,0-5-4.51758-5-11a1,1,0,0,0-2,0c0,6.48242-2.63525,11-5,11a1,1,0,0,0,0,2c2.36475,0,5,4.51758,5,11a1,1,0,0,0,2,0ZM7.7417,19A10.657,10.657,0,0,0,11,13.791,10.657,10.657,0,0,0,14.2583,19,10.657,10.657,0,0,0,11,24.209,10.657,10.657,0,0,0,7.7417,19Z"/><path d="M67,45c-2.36475,0-5-4.51758-5-11a1,1,0,0,0-2,0c0,6.48242-2.63525,11-5,11a1,1,0,0,0,0,2c2.36475,0,5,4.51758,5,11a1,1,0,0,0,2,0c0-6.48242,2.63525-11,5-11a1,1,0,0,0,0-2Zm-6,6.209A10.657,10.657,0,0,0,57.7417,46,10.657,10.657,0,0,0,61,40.791,10.657,10.657,0,0,0,64.2583,46,10.657,10.657,0,0,0,61,51.209Z"/><path d="M14,46v1a1,1,0,0,0,2,0V46a1,1,0,0,0-2,0Z"/><path d="M13,48H12a1,1,0,0,0,0,2h1a1,1,0,0,0,0-2Z"/><path d="M15,50a1,1,0,0,0-1,1v1a1,1,0,0,0,2,0V51A1,1,0,0,0,15,50Z"/><path d="M18,48H17a1,1,0,0,0,0,2h1a1,1,0,0,0,0-2Z"/><path d="M59,15a1,1,0,0,0,1-1V13a1,1,0,0,0-2,0v1A1,1,0,0,0,59,15Z"/><path d="M56,17h1a1,1,0,0,0,0-2H56a1,1,0,0,0,0,2Z"/><path d="M59,17a1,1,0,0,0-1,1v1a1,1,0,0,0,2,0V18A1,1,0,0,0,59,17Z"/><path d="M61,17h1a1,1,0,0,0,0-2H61a1,1,0,0,0,0,2Z"/></g></svg>