<svg xmlns="http://www.w3.org/2000/svg" viewBox="0 0 72 90" x="0px" y="0px"><title>line</title><g data-name="Layer 25"><path d="M62,30H45V27H56a3.00328,3.00328,0,0,0,3-3V10a3.00328,3.00328,0,0,0-3-3H32a3.00328,3.00328,0,0,0-3,3V24a3.00328,3.00328,0,0,0,3,3H43v3H24V25a1,1,0,0,0-2,0v5H21V25a1,1,0,0,0-2,0v5H18V25a1,1,0,0,0-2,0v5H15V25a1,1,0,0,0-2,0v5H10a3,3,0,0,0,0,6h.18427A2.96457,2.96457,0,0,0,10,37V62a3.00328,3.00328,0,0,0,3,3,1,1,0,0,0,0-2,1.0013,1.0013,0,0,1-1-1V37a1.0013,1.0013,0,0,1,1-1H27a1.0013,1.0013,0,0,1,1,1V62a1.0013,1.0013,0,0,1-1,1,1,1,0,0,0,0,2,3.00328,3.00328,0,0,0,3-3V37a2.96457,2.96457,0,0,0-.18427-1H55a1.0013,1.0013,0,0,1,1,1V62a3,3,0,0,0,6,0V36a3,3,0,0,0,0-6ZM31,24V10a1.0013,1.0013,0,0,1,1-1H56a1.0013,1.0013,0,0,1,1,1V24a1.0013,1.0013,0,0,1-1,1H32A1.0013,1.0013,0,0,1,31,24ZM60,62a1,1,0,0,1-2,0V37a2.96457,2.96457,0,0,0-.18427-1H60Zm2-28H10a1,1,0,0,1,0-2H62a1,1,0,0,1,0,2Z"/><path d="M13,46a1,1,0,0,0,1,1H26a1,1,0,0,0,0-2H14A1,1,0,0,0,13,46Z"/><path d="M14,57H26a1,1,0,0,0,0-2H14a1,1,0,0,0,0,2Z"/><path d="M20,41a1,1,0,0,0,0-2H19a1,1,0,0,0,0,2Z"/><path d="M19,49a1,1,0,0,0,0,2h1a1,1,0,0,0,0-2Z"/><path d="M49.707,11.293a.99962.99962,0,0,0-1.41406,0l-7,7A.99989.99989,0,1,0,42.707,19.707l7-7A.99962.99962,0,0,0,49.707,11.293Z"/><path d="M39.293,20.293l-1,1A.99989.99989,0,1,0,39.707,22.707l1-1A.99989.99989,0,1,0,39.293,20.293Z"/><path d="M49.293,15.293l-4,4A.99989.99989,0,1,0,46.707,20.707l4-4A.99989.99989,0,1,0,49.293,15.293Z"/></g></svg>