<svg xmlns="http://www.w3.org/2000/svg" version="1.1" viewBox="-5.0 -10.0 110.0 135.0">
 <path d="m79.633 50.934c1.3633-0.68359 2.3125-2.082 2.3125-3.7109 0-2.1719-1.6758-3.9414-3.8008-4.1289 0.47656-0.84766 1.3711-1.4258 2.4102-1.4258h4.8984c2.6602 0 4.8242-2.1641 4.8242-4.8203 0-1.8398-1.0195-3.4922-2.6641-4.3164l-5.2617-2.6328c-0.96094-0.48047-2.0352-0.73047-3.1055-0.73047h-22.301c-2.2969 0-4.168 1.8672-4.168 4.168v2.7773c0 2.2969 1.8672 4.168 4.168 4.168h1.3711c-0.085937 3.3008-1.3984 6.3945-3.7422 8.7422-0.54297 0.54297-0.54297 1.4219 0 1.9648 0.26953 0.26953 0.625 0.40625 0.98047 0.40625 0.35547 0 0.71094-0.13672 0.98047-0.40625 2.8711-2.8672 4.4727-6.6602 4.5586-10.703h2.793c1.5312 0 2.7773 1.2461 2.7773 2.7773-2.2969 0-4.168 1.8672-4.168 4.168 0 1.6289 0.94922 3.0273 2.3125 3.7109l-6.3281 16.277c-1.9414 4.9961-2.9258 10.246-2.9258 15.605 0 7.1797 5.8398 13.016 13.016 13.016h7.3008c7.1797 0 13.016-5.8398 13.016-13.016 0-5.3594-0.98438-10.609-2.9258-15.605l-6.3281-16.277zm-15.742-13.434h-6.9453c-0.76562 0-1.3906-0.62109-1.3906-1.3906v-2.7773c0-0.76562 0.625-1.3906 1.3906-1.3906h22.301c0.64453 0 1.2891 0.15234 1.8633 0.44141l5.2617 2.6328c0.69531 0.34766 1.1289 1.0508 1.1289 1.8281 0 1.1289-0.91797 2.043-2.043 2.043h-4.8984c-2.582 0-4.7383 1.7773-5.3594 4.168h-5.7539c0-3.0625-2.4922-5.5547-5.5547-5.5547zm2.7773 8.332h11.109c0.76562 0 1.3906 0.62109 1.3906 1.3906 0 0.76562-0.625 1.3906-1.3906 1.3906h-11.109c-0.76562 0-1.3906-0.62109-1.3906-1.3906 0-0.76562 0.625-1.3906 1.3906-1.3906zm9.2031 47.223h-7.3008c-5.6445 0-10.238-4.5938-10.238-10.238 0-5.0117 0.92188-9.9258 2.7383-14.598l6.543-16.828h9.2109l6.543 16.828c1.8164 4.6758 2.7383 9.5859 2.7383 14.598 0 5.6445-4.5938 10.238-10.238 10.238z"/>
 <path d="m75.711 59.898c-0.66797 0.375-0.90625 1.2227-0.53125 1.8906 4.1094 7.3359 3.2305 13.879 0.32031 16.312-1.168 0.97656-4.1055 2.4883-6.8516 1.1992-2.5234-1.1836-3.2773-4.0391-3.4023-4.6016-0.16797-0.75-0.90234-1.2188-1.6602-1.0508-0.75 0.16797-1.2188 0.91016-1.0508 1.6562 0.24609 1.1016 1.3281 4.8203 4.9336 6.5117 1.1641 0.54688 2.3359 0.76562 3.4492 0.76562 2.7188 0 5.1172-1.3047 6.3633-2.3477 4.5039-3.7656 4.6406-12.09 0.32031-19.801-0.375-0.67188-1.2188-0.90625-1.8906-0.53125z"/>
 <path d="m27.371 4.5742c-0.54297-0.54297-1.4219-0.54297-1.9648 0s-0.54297 1.4219 0 1.9648l23.609 23.609c0.26953 0.26953 0.625 0.40625 0.98047 0.40625 0.35547 0 0.71094-0.13672 0.98047-0.40625 0.54297-0.54297 0.54297-1.4219 0-1.9648z"/>
 <path d="m49.02 42.074-25 25c-0.54297 0.54297-0.54297 1.4219 0 1.9648 0.26953 0.26953 0.625 0.40625 0.98047 0.40625s0.71094-0.13672 0.98047-0.40625l25-25c0.54297-0.54297 0.54297-1.4219 0-1.9648s-1.4219-0.54297-1.9648 0z"/>
 <path d="m19.852 71.242-4.168 4.168c-0.54297 0.54297-0.54297 1.4219 0 1.9648 0.26953 0.26953 0.625 0.40625 0.98047 0.40625 0.35547 0 0.71094-0.13672 0.98047-0.40625l4.168-4.168c0.54297-0.54297 0.54297-1.4219 0-1.9648-0.54297-0.54297-1.4219-0.54297-1.9648 0z"/>
 <path d="m11.52 79.574-1.3906 1.3906c-0.54297 0.54297-0.54297 1.4219 0 1.9648 0.26953 0.26953 0.625 0.40625 0.98047 0.40625s0.71094-0.13672 0.98047-0.40625l1.3906-1.3906c0.54297-0.54297 0.54297-1.4219 0-1.9648s-1.4219-0.54297-1.9648 0z"/>
 <path d="m9.7227 9.7227c0.76562 0 1.3906-0.62109 1.3906-1.3906v-1.3906c0-0.76953-0.62109-1.3906-1.3906-1.3906-0.76562 0-1.3906 0.62109-1.3906 1.3906v1.3906c0 0.76953 0.62109 1.3906 1.3906 1.3906z"/>
 <path d="m5.5547 12.5h1.3906c0.76563 0 1.3906-0.62109 1.3906-1.3906s-0.62109-1.3906-1.3906-1.3906h-1.3906c-0.76563 0-1.3906 0.62109-1.3906 1.3906s0.62109 1.3906 1.3906 1.3906z"/>
 <path d="m9.7227 16.668c0.76562 0 1.3906-0.62109 1.3906-1.3906v-1.3906c0-0.76953-0.62109-1.3906-1.3906-1.3906-0.76562 0-1.3906 0.62109-1.3906 1.3906v1.3906c0 0.76953 0.62109 1.3906 1.3906 1.3906z"/>
 <path d="m12.5 12.5h1.3906c0.76562 0 1.3906-0.62109 1.3906-1.3906s-0.62109-1.3906-1.3906-1.3906h-1.3906c-0.76562 0-1.3906 0.62109-1.3906 1.3906s0.62109 1.3906 1.3906 1.3906z"/>
 <path d="m8.332 25c0 0.76953 0.62109 1.3906 1.3906 1.3906 0.76562 0 1.3906-0.62109 1.3906-1.3906v-1.3906c0-0.76953-0.62109-1.3906-1.3906-1.3906-0.76562 0-1.3906 0.62109-1.3906 1.3906z"/>
 <path d="m5.5547 29.168h1.3906c0.76563 0 1.3906-0.62109 1.3906-1.3906 0-0.76953-0.62109-1.3906-1.3906-1.3906h-1.3906c-0.76563 0-1.3906 0.62109-1.3906 1.3906 0 0.76953 0.62109 1.3906 1.3906 1.3906z"/>
 <path d="m8.332 31.945c0 0.76953 0.62109 1.3906 1.3906 1.3906 0.76562 0 1.3906-0.62109 1.3906-1.3906v-1.3906c0-0.76953-0.62109-1.3906-1.3906-1.3906-0.76562 0-1.3906 0.62109-1.3906 1.3906z"/>
 <path d="m13.891 26.391h-1.3906c-0.76562 0-1.3906 0.62109-1.3906 1.3906s0.62109 1.3906 1.3906 1.3906h1.3906c0.76562 0 1.3906-0.62109 1.3906-1.3906s-0.62109-1.3906-1.3906-1.3906z"/>
 <path d="m11.109 40.277c0-0.76953-0.62109-1.3906-1.3906-1.3906-0.76562 0-1.3906 0.62109-1.3906 1.3906v1.3906c0 0.76953 0.62109 1.3906 1.3906 1.3906 0.76562 0 1.3906-0.62109 1.3906-1.3906z"/>
 <path d="m5.5547 45.832h1.3906c0.76563 0 1.3906-0.62109 1.3906-1.3906 0-0.76953-0.62109-1.3906-1.3906-1.3906h-1.3906c-0.76563 0-1.3906 0.62109-1.3906 1.3906 0 0.76953 0.62109 1.3906 1.3906 1.3906z"/>
 <path d="m11.109 47.223c0-0.76953-0.62109-1.3906-1.3906-1.3906-0.76562 0-1.3906 0.62109-1.3906 1.3906v1.3906c0 0.76953 0.62109 1.3906 1.3906 1.3906 0.76562 0 1.3906-0.62109 1.3906-1.3906z"/>
 <path d="m12.5 45.832h1.3906c0.76562 0 1.3906-0.62109 1.3906-1.3906 0-0.76953-0.62109-1.3906-1.3906-1.3906h-1.3906c-0.76562 0-1.3906 0.62109-1.3906 1.3906 0 0.76953 0.62109 1.3906 1.3906 1.3906z"/>
 <path d="m9.7227 55.555c-0.76562 0-1.3906 0.62109-1.3906 1.3906v1.3906c0 0.76953 0.62109 1.3906 1.3906 1.3906 0.76562 0 1.3906-0.62109 1.3906-1.3906v-1.3906c0-0.76953-0.62109-1.3906-1.3906-1.3906z"/>
 <path d="m6.9453 59.723h-1.3906c-0.76563 0-1.3906 0.62109-1.3906 1.3906s0.62109 1.3906 1.3906 1.3906h1.3906c0.76563 0 1.3906-0.62109 1.3906-1.3906s-0.62109-1.3906-1.3906-1.3906z"/>
 <path d="m11.109 65.277v-1.3906c0-0.76953-0.62109-1.3906-1.3906-1.3906-0.76562 0-1.3906 0.62109-1.3906 1.3906v1.3906c0 0.76953 0.62109 1.3906 1.3906 1.3906 0.76562 0 1.3906-0.62109 1.3906-1.3906z"/>
 <path d="m13.891 59.723h-1.3906c-0.76562 0-1.3906 0.62109-1.3906 1.3906s0.62109 1.3906 1.3906 1.3906h1.3906c0.76562 0 1.3906-0.62109 1.3906-1.3906s-0.62109-1.3906-1.3906-1.3906z"/>
 <path d="m23.609 18.055c0.76562 0 1.3906-0.62109 1.3906-1.3906v-1.3906c0-0.76953-0.62109-1.3906-1.3906-1.3906-0.76562 0-1.3906 0.62109-1.3906 1.3906v1.3906c0 0.76953 0.62109 1.3906 1.3906 1.3906z"/>
 <path d="m19.445 20.832h1.3906c0.76562 0 1.3906-0.62109 1.3906-1.3906 0-0.76953-0.62109-1.3906-1.3906-1.3906h-1.3906c-0.76562 0-1.3906 0.62109-1.3906 1.3906 0 0.76953 0.62109 1.3906 1.3906 1.3906z"/>
 <path d="m23.609 25c0.76562 0 1.3906-0.62109 1.3906-1.3906v-1.3906c0-0.76953-0.62109-1.3906-1.3906-1.3906-0.76562 0-1.3906 0.62109-1.3906 1.3906v1.3906c0 0.76953 0.62109 1.3906 1.3906 1.3906z"/>
 <path d="m27.777 18.055h-1.3906c-0.76562 0-1.3906 0.62109-1.3906 1.3906 0 0.76953 0.62109 1.3906 1.3906 1.3906h1.3906c0.76562 0 1.3906-0.62109 1.3906-1.3906 0-0.76953-0.62109-1.3906-1.3906-1.3906z"/>
 <path d="m22.223 33.332c0 0.76953 0.62109 1.3906 1.3906 1.3906 0.76562 0 1.3906-0.62109 1.3906-1.3906v-1.3906c0-0.76953-0.62109-1.3906-1.3906-1.3906-0.76562 0-1.3906 0.62109-1.3906 1.3906z"/>
 <path d="m19.445 37.5h1.3906c0.76562 0 1.3906-0.62109 1.3906-1.3906s-0.62109-1.3906-1.3906-1.3906h-1.3906c-0.76562 0-1.3906 0.62109-1.3906 1.3906s0.62109 1.3906 1.3906 1.3906z"/>
 <path d="m22.223 40.277c0 0.76953 0.62109 1.3906 1.3906 1.3906 0.76562 0 1.3906-0.62109 1.3906-1.3906v-1.3906c0-0.76953-0.62109-1.3906-1.3906-1.3906-0.76562 0-1.3906 0.62109-1.3906 1.3906z"/>
 <path d="m27.777 34.723h-1.3906c-0.76562 0-1.3906 0.62109-1.3906 1.3906s0.62109 1.3906 1.3906 1.3906h1.3906c0.76562 0 1.3906-0.62109 1.3906-1.3906s-0.62109-1.3906-1.3906-1.3906z"/>
 <path d="m22.223 50c0 0.76953 0.62109 1.3906 1.3906 1.3906 0.76562 0 1.3906-0.62109 1.3906-1.3906v-1.3906c0-0.76953-0.62109-1.3906-1.3906-1.3906-0.76562 0-1.3906 0.62109-1.3906 1.3906z"/>
 <path d="m19.445 54.168h1.3906c0.76562 0 1.3906-0.62109 1.3906-1.3906 0-0.76953-0.62109-1.3906-1.3906-1.3906h-1.3906c-0.76562 0-1.3906 0.62109-1.3906 1.3906 0 0.76953 0.62109 1.3906 1.3906 1.3906z"/>
 <path d="m25 56.945v-1.3906c0-0.76953-0.62109-1.3906-1.3906-1.3906-0.76562 0-1.3906 0.62109-1.3906 1.3906v1.3906c0 0.76953 0.62109 1.3906 1.3906 1.3906 0.76562 0 1.3906-0.62109 1.3906-1.3906z"/>
 <path d="m26.391 54.168h1.3906c0.76562 0 1.3906-0.62109 1.3906-1.3906 0-0.76953-0.62109-1.3906-1.3906-1.3906h-1.3906c-0.76562 0-1.3906 0.62109-1.3906 1.3906 0 0.76953 0.62109 1.3906 1.3906 1.3906z"/>
 <path d="m36.109 22.223c-0.76562 0-1.3906 0.62109-1.3906 1.3906v1.3906c0 0.76953 0.62109 1.3906 1.3906 1.3906 0.76562 0 1.3906-0.62109 1.3906-1.3906v-1.3906c0-0.76953-0.62109-1.3906-1.3906-1.3906z"/>
 <path d="m33.332 26.391h-1.3906c-0.76562 0-1.3906 0.62109-1.3906 1.3906s0.62109 1.3906 1.3906 1.3906h1.3906c0.76562 0 1.3906-0.62109 1.3906-1.3906s-0.62109-1.3906-1.3906-1.3906z"/>
 <path d="m34.723 31.945c0 0.76953 0.62109 1.3906 1.3906 1.3906 0.76562 0 1.3906-0.62109 1.3906-1.3906v-1.3906c0-0.76953-0.62109-1.3906-1.3906-1.3906-0.76562 0-1.3906 0.62109-1.3906 1.3906z"/>
 <path d="m40.277 26.391h-1.3906c-0.76562 0-1.3906 0.62109-1.3906 1.3906s0.62109 1.3906 1.3906 1.3906h1.3906c0.76562 0 1.3906-0.62109 1.3906-1.3906s-0.62109-1.3906-1.3906-1.3906z"/>
 <path d="m37.5 40.277c0-0.76953-0.62109-1.3906-1.3906-1.3906-0.76562 0-1.3906 0.62109-1.3906 1.3906v1.3906c0 0.76953 0.62109 1.3906 1.3906 1.3906 0.76562 0 1.3906-0.62109 1.3906-1.3906z"/>
 <path d="m31.945 45.832h1.3906c0.76562 0 1.3906-0.62109 1.3906-1.3906 0-0.76953-0.62109-1.3906-1.3906-1.3906h-1.3906c-0.76562 0-1.3906 0.62109-1.3906 1.3906 0 0.76953 0.62109 1.3906 1.3906 1.3906z"/>
 <path d="m36.109 45.832c-0.76562 0-1.3906 0.62109-1.3906 1.3906v1.3906c0 0.76953 0.62109 1.3906 1.3906 1.3906 0.76562 0 1.3906-0.62109 1.3906-1.3906v-1.3906c0-0.76953-0.62109-1.3906-1.3906-1.3906z"/>
 <path d="m38.891 45.832h1.3906c0.76562 0 1.3906-0.62109 1.3906-1.3906 0-0.76953-0.62109-1.3906-1.3906-1.3906h-1.3906c-0.76562 0-1.3906 0.62109-1.3906 1.3906 0 0.76953 0.62109 1.3906 1.3906 1.3906z"/>
</svg>