<svg xmlns="http://www.w3.org/2000/svg" version="1.1" viewBox="-5.0 -10.0 110.0 135.0">
 <path d="m75 4.168h-50c-2.2969 0-4.168 1.8672-4.168 4.168v2.7773c0 1.9219 1.3125 3.5273 3.082 4.0078-0.19531 0.48047-0.30469 1-0.30469 1.5508v1.3906h-1.3906c-2.2969 0-4.168 1.8672-4.168 4.168v2.7773c0 2.2969 1.8672 4.168 4.168 4.168h1.3906v22.223c0 1.9219 1.3125 3.5273 3.082 4.0078-0.19531 0.48047-0.30469 1-0.30469 1.5508 0 2.2969 1.8672 4.168 4.168 4.168h1.4609c0.58203 7.6055 5.8906 13.898 12.992 15.949l-1.7383 10.441h-0.21094c-2.2969 0-4.168 1.8672-4.168 4.168 0 2.2969 1.8672 4.168 4.168 4.168h13.891c2.2969 0 4.168-1.8672 4.168-4.168 0-2.2969-1.8672-4.168-4.168-4.168h-0.21094l-1.7383-10.441c7.1016-2.0508 12.406-8.3438 12.992-15.949h1.4609c2.2969 0 4.168-1.8672 4.168-4.168 0-0.54688-0.11328-1.0703-0.30469-1.5508 1.7695-0.48047 3.082-2.0859 3.082-4.0078l-0.007813-34.73c0-0.54688-0.11328-1.0703-0.30469-1.5508 1.7695-0.48047 3.082-2.0859 3.082-4.0078v-2.7773c0-2.2969-1.8672-4.168-4.168-4.168zm-52.777 22.223c-0.76562 0-1.3906-0.625-1.3906-1.3906v-2.7773c0-0.76562 0.62109-1.3906 1.3906-1.3906h1.3906v5.5547h-1.3906zm36.109 65.277c0 0.76562-0.62109 1.3906-1.3906 1.3906h-13.891c-0.76562 0-1.3906-0.625-1.3906-1.3906s0.62109-1.3906 1.3906-1.3906h13.891c0.76562 0 1.3906 0.625 1.3906 1.3906zm-4.418-4.168h-7.832l1.6445-9.8828c0.74609 0.09375 1.5 0.16016 2.2695 0.16016 0.76953 0 1.5273-0.066406 2.2695-0.16016l1.6445 9.8828zm-3.9141-12.5c-7.957 0-14.512-6.1133-15.215-13.891h30.43c-0.70312 7.7773-7.2578 13.891-15.215 13.891zm19.445-16.668h-38.891c-0.76563 0-1.3906-0.625-1.3906-1.3906s0.62109-1.3906 1.3906-1.3906h38.891c0.76563 0 1.3906 0.625 1.3906 1.3906s-0.62109 1.3906-1.3906 1.3906zm-36.113-15.277c0-12.137 8.1016-23.609 16.668-23.609s16.668 11.477 16.668 23.609c0 3.6758-0.76562 6.9375-2.2539 9.7227h-28.824c-1.4883-2.7852-2.2539-6.0469-2.2539-9.7227zm40.277 8.3359c0 0.76562-0.62109 1.3906-1.3906 1.3906h-4.7188c1.2812-2.8828 1.9414-6.1367 1.9414-9.7227 0-12.457-8.3164-26.391-19.445-26.391s-19.445 13.934-19.445 26.391c0 3.5859 0.66016 6.8398 1.9414 9.7227h-4.7188c-0.76563 0-1.3906-0.625-1.3906-1.3906l0.007813-34.723c0-0.76562 0.62109-1.3906 1.3906-1.3906h44.445c0.76563 0 1.3906 0.625 1.3906 1.3906v34.723zm2.7812-40.281c0 0.76562-0.62109 1.3906-1.3906 1.3906h-50c-0.76562 0-1.3906-0.625-1.3906-1.3906v-2.7773c0-0.76562 0.62109-1.3906 1.3906-1.3906h50c0.76562 0 1.3906 0.625 1.3906 1.3906z"/>
 <path d="m16.668 37.5c0.76953 0 1.3906-0.62109 1.3906-1.3906 0-0.76562-0.62109-1.3906-1.3906-1.3906-2.2969 0-4.168-2.4922-4.168-5.5547 0-0.76562-0.62109-1.3906-1.3906-1.3906s-1.3906 0.62109-1.3906 1.3906c0 3.0625-1.8672 5.5547-4.168 5.5547-0.76953 0-1.3906 0.62109-1.3906 1.3906 0 0.76562 0.62109 1.3906 1.3906 1.3906 2.2969 0 4.168 2.4922 4.168 5.5547 0 0.76562 0.62109 1.3906 1.3906 1.3906s1.3906-0.62109 1.3906-1.3906c0-3.0625 1.8672-5.5547 4.168-5.5547zm-5.5586 0.5625c-0.47656-0.76172-1.0586-1.4219-1.7227-1.9492 0.66016-0.52734 1.2461-1.1875 1.7227-1.9492 0.47656 0.76172 1.0586 1.4219 1.7227 1.9492-0.66016 0.52734-1.2461 1.1875-1.7227 1.9492z"/>
 <path d="m94.445 68.055c-2.2969 0-4.168-2.4922-4.168-5.5547 0-0.76562-0.62109-1.3906-1.3906-1.3906s-1.3906 0.62109-1.3906 1.3906c0 3.0625-1.8672 5.5547-4.168 5.5547-0.76953 0-1.3906 0.62109-1.3906 1.3906 0 0.76563 0.62109 1.3906 1.3906 1.3906 2.2969 0 4.168 2.4922 4.168 5.5547 0 0.76562 0.62109 1.3906 1.3906 1.3906s1.3906-0.62109 1.3906-1.3906c0-3.0625 1.8672-5.5547 4.168-5.5547 0.76953 0 1.3906-0.62109 1.3906-1.3906 0-0.76562-0.62109-1.3906-1.3906-1.3906zm-5.5547 3.3398c-0.47656-0.76172-1.0586-1.4219-1.7227-1.9492 0.66016-0.52734 1.2461-1.1875 1.7227-1.9492 0.47656 0.76172 1.0586 1.4219 1.7227 1.9492-0.66016 0.52734-1.2461 1.1875-1.7227 1.9492z"/>
 <path d="m26.391 79.168c-2.2969 0-4.168-2.4922-4.168-5.5547 0-0.76562-0.62109-1.3906-1.3906-1.3906s-1.3906 0.62109-1.3906 1.3906c0 3.0625-1.8672 5.5547-4.168 5.5547-0.76953 0-1.3906 0.62109-1.3906 1.3906 0 0.76562 0.62109 1.3906 1.3906 1.3906 2.2969 0 4.168 2.4922 4.168 5.5547 0 0.76562 0.62109 1.3906 1.3906 1.3906s1.3906-0.62109 1.3906-1.3906c0-3.0625 1.8672-5.5547 4.168-5.5547 0.76953 0 1.3906-0.62109 1.3906-1.3906 0-0.76562-0.62109-1.3906-1.3906-1.3906zm-5.5586 3.3359c-0.47656-0.76172-1.0586-1.4219-1.7227-1.9492 0.66016-0.52734 1.2461-1.1875 1.7227-1.9492 0.47656 0.76172 1.0586 1.4219 1.7227 1.9492-0.66016 0.52734-1.2461 1.1875-1.7227 1.9492z"/>
 <path d="m86.109 29.168c0 0.76562 0.62109 1.3906 1.3906 1.3906s1.3906-0.62109 1.3906-1.3906c0-3.0625 1.8672-5.5547 4.168-5.5547 0.76953 0 1.3906-0.62109 1.3906-1.3906 0-0.76562-0.62109-1.3906-1.3906-1.3906-2.2969 0-4.168-2.4922-4.168-5.5547 0-0.76562-0.62109-1.3906-1.3906-1.3906s-1.3906 0.62109-1.3906 1.3906c0 3.0625-1.8672 5.5547-4.168 5.5547-0.76953 0-1.3906 0.62109-1.3906 1.3906 0 0.76562 0.62109 1.3906 1.3906 1.3906 2.2969 0 4.168 2.4922 4.168 5.5547zm1.3906-8.8945c0.47656 0.76172 1.0586 1.4219 1.7227 1.9492-0.66016 0.52734-1.2461 1.1875-1.7227 1.9492-0.47656-0.76172-1.0586-1.4219-1.7227-1.9492 0.66016-0.52734 1.2461-1.1875 1.7227-1.9492z"/>
</svg>