<svg xmlns="http://www.w3.org/2000/svg" version="1.1" viewBox="-5.0 -10.0 110.0 135.0">
 <path d="m87.5 76.5v-23.723c0-1.2266-0.54297-2.3203-1.3906-3.082v-2.4727c0-1.8086-1.1641-3.3359-2.7773-3.9102v-3.2734c0-2.9297-2.3867-5.3164-5.3164-5.3164-1.4219 0-2.7578 0.55469-3.7578 1.5586l-24.23 24.23c-2.1289-1.25-4.9062-0.98047-6.7305 0.84375l-23.371 23.371h-3.2578c-3.8281 0-6.9453 3.1172-6.9453 6.9453 0 2.2969 1.8672 4.168 4.168 4.168h13.891c2.2969 0 4.168-1.8672 4.168-4.168 0-0.96094-0.19531-1.875-0.55078-2.707l19.754-19.754c1.8242-1.8242 2.0898-4.6055 0.84375-6.7305l24.23-24.23c0.47266-0.47266 1.1289-0.74219 1.7969-0.74219 1.3984 0 2.5391 1.1406 2.5391 2.5391v3.2734c-1.6133 0.57422-2.7773 2.1016-2.7773 3.9102v1.5977c-10.176 1.3633-18.055 10.082-18.055 20.625v25c0 0.76953 0.62109 1.3906 1.3906 1.3906h25c5.3594 0 9.7227-4.3633 9.7227-9.7227 0-4.8867-3.6289-8.9336-8.332-9.6094zm-59.723 16.555h-13.891c-0.76562 0-1.3906-0.62109-1.3906-1.3906 0-2.2969 1.8672-4.168 4.168-4.168h8.332c2.2969 0 4.168 1.8672 4.168 4.168 0 0.76563-0.625 1.3906-1.3906 1.3906zm21.406-25.812-19.41 19.41c-1.2461-1.1875-2.9219-1.9258-4.7773-1.9258h-1.1484l21.406-21.406c1.082-1.082 2.8438-1.082 3.9258 0 1.082 1.082 1.082 2.8438 0 3.9258zm31.371-20.02c0-0.76562 0.62109-1.3906 1.3906-1.3906 0.76563 0 1.3906 0.62109 1.3906 1.3906v1.3906h-2.7773v-1.3906zm-18.055 45.832v-23.609c0-9.957 8.1016-18.055 18.055-18.055h2.7773c0.76562 0 1.3906 0.62109 1.3906 1.3906v23.723c-4.7031 0.67969-8.332 4.7227-8.332 9.6094 0 2.7188 1.125 5.1797 2.9297 6.9453h-16.82zm23.609 0c-3.8281 0-6.9453-3.1172-6.9453-6.9453s3.1172-6.9453 6.9453-6.9453 6.9453 3.1172 6.9453 6.9453-3.1172 6.9453-6.9453 6.9453z"/>
 <path d="m79.168 66.668v-12.5c0-0.76953-0.62109-1.3906-1.3906-1.3906-0.76953 0-1.3906 0.62109-1.3906 1.3906v12.5c0 2.2969-1.8672 4.168-4.168 4.168h-6.9453c-0.76953 0-1.3906 0.62109-1.3906 1.3906 0 0.76953 0.62109 1.3906 1.3906 1.3906h6.9453c3.8281 0 6.9453-3.1172 6.9453-6.9453z"/>
 <path d="m28.18 49.918 0.007812 0.019531 12.172-3.7461c4.1055-1.2656 6.8633-5 6.8633-9.293v-11.539c2.6914-5.1914 6.5078-7.3984 8.5703-8.2461 1.543-0.63672 2.543-2.1406 2.543-3.8359v-7.7227c0-0.14063-0.019532-0.28516-0.066407-0.42578-0.18359-0.57422-0.71875-0.96484-1.3242-0.96484h-22.223c-0.28906 0-0.57422 0.089844-0.80859 0.25781-5.1758 3.6992-9.9258 7.9766-14.121 12.707-6.6055 7.4531-11.824 15.988-15.516 25.375 0 0.003906-0.003906 0.007813-0.003906 0.011719-0.003907 0.007813-0.007813 0.019531-0.011719 0.027344-0.03125 0.082031-0.027344 0.16406-0.042969 0.24609-0.015625 0.085938-0.050781 0.16797-0.050781 0.26172v5.5547c0 0.76953 0.62109 1.3906 1.3906 1.3906h22.223c0.14453 0 0.27344-0.042969 0.40234-0.082032zm11.363-6.3789-10.375 3.1914v-3.3984c3.5664-9.0039 8.5859-17.199 14.93-24.355 0.11328-0.12891 0.23438-0.24609 0.34766-0.37109v18.297c0 3.0664-1.9688 5.7344-4.9023 6.6367zm15.191-28.992c-1.8242 0.75-4.8203 2.3906-7.5117 5.7227v-4.625c2.5977-2.6172 5.3984-5.0391 8.332-7.293v4.9297c0 0.5625-0.32422 1.0625-0.82031 1.2656zm-19.566-7.6016h17.621c-2.7188 2.1523-5.293 4.4805-7.7227 6.9453h-18.23c2.625-2.4844 5.3945-4.8203 8.332-6.9453zm-13.297 12.031c0.69922-0.78906 1.4336-1.5469 2.1641-2.3086h18.414c-0.14062 0.15625-0.29297 0.30859-0.43359 0.46875-6.4062 7.2266-11.496 15.48-15.164 24.531h-19.211c3.5156-8.3477 8.2852-15.98 14.234-22.691zm4.5195 28.246h-19.445v-2.7773h19.445z"/>
 <path d="m69.445 8.332c0.76953 0 1.3906-0.62109 1.3906-1.3906v-1.3906c0-0.76953-0.62109-1.3906-1.3906-1.3906-0.76953 0-1.3906 0.62109-1.3906 1.3906v1.3906c0 0.76953 0.62109 1.3906 1.3906 1.3906z"/>
 <path d="m65.277 11.109h1.3906c0.76953 0 1.3906-0.62109 1.3906-1.3906s-0.62109-1.3906-1.3906-1.3906h-1.3906c-0.76953 0-1.3906 0.62109-1.3906 1.3906s0.62109 1.3906 1.3906 1.3906z"/>
 <path d="m69.445 11.109c-0.76953 0-1.3906 0.62109-1.3906 1.3906v1.3906c0 0.76953 0.62109 1.3906 1.3906 1.3906 0.76953 0 1.3906-0.62109 1.3906-1.3906v-1.3906c0-0.76953-0.62109-1.3906-1.3906-1.3906z"/>
 <path d="m72.223 11.109h1.3906c0.76953 0 1.3906-0.62109 1.3906-1.3906s-0.62109-1.3906-1.3906-1.3906h-1.3906c-0.76953 0-1.3906 0.62109-1.3906 1.3906s0.62109 1.3906 1.3906 1.3906z"/>
 <path d="m20.832 66.668c0-0.76953-0.62109-1.3906-1.3906-1.3906-0.76562 0-1.3906 0.62109-1.3906 1.3906v1.3906c0 0.76953 0.62109 1.3906 1.3906 1.3906 0.76562 0 1.3906-0.62109 1.3906-1.3906z"/>
 <path d="m16.668 69.445h-1.3906c-0.76562 0-1.3906 0.62109-1.3906 1.3906 0 0.76953 0.62109 1.3906 1.3906 1.3906h1.3906c0.76562 0 1.3906-0.62109 1.3906-1.3906 0-0.76953-0.62109-1.3906-1.3906-1.3906z"/>
 <path d="m19.445 76.391c0.76563 0 1.3906-0.62109 1.3906-1.3906v-1.3906c0-0.76953-0.62109-1.3906-1.3906-1.3906-0.76562 0-1.3906 0.62109-1.3906 1.3906v1.3906c0 0.76953 0.62109 1.3906 1.3906 1.3906z"/>
 <path d="m22.223 72.223h1.3906c0.76562 0 1.3906-0.62109 1.3906-1.3906s-0.62109-1.3906-1.3906-1.3906h-1.3906c-0.76562 0-1.3906 0.62109-1.3906 1.3906s0.62109 1.3906 1.3906 1.3906z"/>
 <path d="m90.277 20.832c0.76953 0 1.3906-0.62109 1.3906-1.3906v-1.3906c0-0.76953-0.62109-1.3906-1.3906-1.3906-0.76953 0-1.3906 0.62109-1.3906 1.3906v1.3906c0 0.76953 0.62109 1.3906 1.3906 1.3906z"/>
 <path d="m86.109 23.609h1.3906c0.76953 0 1.3906-0.62109 1.3906-1.3906s-0.62109-1.3906-1.3906-1.3906h-1.3906c-0.76953 0-1.3906 0.62109-1.3906 1.3906s0.62109 1.3906 1.3906 1.3906z"/>
 <path d="m90.277 23.609c-0.76953 0-1.3906 0.62109-1.3906 1.3906v1.3906c0 0.76953 0.62109 1.3906 1.3906 1.3906 0.76953 0 1.3906-0.62109 1.3906-1.3906v-1.3906c0-0.76953-0.62109-1.3906-1.3906-1.3906z"/>
 <path d="m93.055 23.609h1.3906c0.76953 0 1.3906-0.62109 1.3906-1.3906s-0.62109-1.3906-1.3906-1.3906h-1.3906c-0.76953 0-1.3906 0.62109-1.3906 1.3906s0.62109 1.3906 1.3906 1.3906z"/>
 <path d="m47.223 87.5c0.76562 0 1.3906-0.62109 1.3906-1.3906v-1.3906c0-0.76953-0.62109-1.3906-1.3906-1.3906-0.76562 0-1.3906 0.62109-1.3906 1.3906v1.3906c0 0.76953 0.62109 1.3906 1.3906 1.3906z"/>
 <path d="m44.445 87.5h-1.3906c-0.76563 0-1.3906 0.62109-1.3906 1.3906s0.62109 1.3906 1.3906 1.3906h1.3906c0.76563 0 1.3906-0.62109 1.3906-1.3906s-0.62109-1.3906-1.3906-1.3906z"/>
 <path d="m47.223 90.277c-0.76562 0-1.3906 0.62109-1.3906 1.3906v1.3906c0 0.76953 0.62109 1.3906 1.3906 1.3906 0.76562 0 1.3906-0.62109 1.3906-1.3906v-1.3906c0-0.76953-0.62109-1.3906-1.3906-1.3906z"/>
 <path d="m51.391 87.5h-1.3906c-0.76562 0-1.3906 0.62109-1.3906 1.3906s0.62109 1.3906 1.3906 1.3906h1.3906c0.76953 0 1.3906-0.62109 1.3906-1.3906s-0.62109-1.3906-1.3906-1.3906z"/>
</svg>