<svg xmlns="http://www.w3.org/2000/svg" version="1.1" viewBox="-5.0 -10.0 110.0 135.0">
 <path d="m39.062 35.938h-6.25c-1.7188 0-3.125 1.4062-3.125 3.125v6.25c0 1.7188 1.4062 3.125 3.125 3.125h6.25c1.7188 0 3.125-1.4062 3.125-3.125v-6.25c0-1.7188-1.4062-3.125-3.125-3.125zm-6.25 9.375v-6.25h6.25v6.25h-6.25z"/>
 <path d="m51.562 48.438h6.25c1.7188 0 3.125-1.4062 3.125-3.125v-6.25c0-1.7188-1.4062-3.125-3.125-3.125h-6.25c-1.7188 0-3.125 1.4062-3.125 3.125v6.25c0 1.7188 1.4062 3.125 3.125 3.125zm0-9.375h6.25v6.25h-6.25z"/>
 <path d="m70.312 48.438h6.25c1.7188 0 3.125-1.4062 3.125-3.125v-6.25c0-1.7188-1.4062-3.125-3.125-3.125h-6.25c-1.7188 0-3.125 1.4062-3.125 3.125v6.25c0 1.7188 1.4062 3.125 3.125 3.125zm0-9.375h6.25v6.25h-6.25z"/>
 <path d="m20.312 35.938h-6.25c-1.7188 0-3.125 1.4062-3.125 3.125v6.25c0 1.7188 1.4062 3.125 3.125 3.125h6.25c1.7188 0 3.125-1.4062 3.125-3.125v-6.25c0-1.7188-1.4062-3.125-3.125-3.125zm-6.25 9.375v-6.25h6.25v6.25h-6.25z"/>
 <path d="m39.062 53.125h-6.25c-1.7188 0-3.125 1.4062-3.125 3.125v6.25c0 1.7188 1.4062 3.125 3.125 3.125h6.25c1.7188 0 3.125-1.4062 3.125-3.125v-6.25c0-1.7188-1.4062-3.125-3.125-3.125zm-6.25 9.375v-6.25h6.25v6.25h-6.25z"/>
 <path d="m20.312 53.125h-6.25c-1.7188 0-3.125 1.4062-3.125 3.125v6.25c0 1.7188 1.4062 3.125 3.125 3.125h6.25c1.7188 0 3.125-1.4062 3.125-3.125v-6.25c0-1.7188-1.4062-3.125-3.125-3.125zm-6.25 9.375v-6.25h6.25v6.25h-6.25z"/>
 <path d="m39.062 70.312h-6.25c-1.7188 0-3.125 1.4062-3.125 3.125v6.25c0 1.7188 1.4062 3.125 3.125 3.125h6.25c1.7188 0 3.125-1.4062 3.125-3.125v-6.25c0-1.7188-1.4062-3.125-3.125-3.125zm-6.25 9.375v-6.25h6.25v6.25h-6.25z"/>
 <path d="m20.312 70.312h-6.25c-1.7188 0-3.125 1.4062-3.125 3.125v6.25c0 1.7188 1.4062 3.125 3.125 3.125h6.25c1.7188 0 3.125-1.4062 3.125-3.125v-6.25c0-1.7188-1.4062-3.125-3.125-3.125zm-6.25 9.375v-6.25h6.25v6.25h-6.25z"/>
 <path d="m87.5 55.516v-35.203c0-4.3125-3.5-7.8125-7.8125-7.8125h-4.6875v-1.5625c0-3.4531-2.7969-6.25-6.25-6.25s-6.25 2.7969-6.25 6.25v1.5625h-10.938v-1.5625c0-3.4531-2.7969-6.25-6.25-6.25s-6.25 2.7969-6.25 6.25v1.5625h-10.938v-1.5625c0-3.4531-2.7969-6.25-6.25-6.25s-6.25 2.7969-6.25 6.25v1.5625h-4.6875c-4.3125 0-7.8125 3.5-7.8125 7.8125v62.5c0 4.3125 3.5 7.8125 7.8125 7.8125h50.578c3.7188 2.9219 8.3906 4.6875 13.484 4.6875 12.062 0 21.875-9.8125 21.875-21.875 0-7.4219-3.7188-13.969-9.375-17.922zm-21.875-44.578c0-1.7188 1.4062-3.125 3.125-3.125s3.125 1.4062 3.125 3.125v1.5625h-6.25zm-23.438 0c0-1.7188 1.4062-3.125 3.125-3.125s3.125 1.4062 3.125 3.125v1.5625h-6.25zm-23.438 0c0-1.7188 1.4062-3.125 3.125-3.125s3.125 1.4062 3.125 3.125v1.5625h-6.25zm-12.5 9.375c0-2.5781 2.1094-4.6875 4.6875-4.6875h14.062v1.5625c0 1.7188-1.4062 3.125-3.125 3.125-0.85938 0-1.5625 0.70312-1.5625 1.5625s0.70312 1.5625 1.5625 1.5625c3.4531 0 6.25-2.7969 6.25-6.25v-1.5625h20.312v1.5625c0 1.7188-1.4062 3.125-3.125 3.125-0.85938 0-1.5625 0.70312-1.5625 1.5625s0.70312 1.5625 1.5625 1.5625c3.4531 0 6.25-2.7969 6.25-6.25v-1.5625h20.312v1.5625c0 1.7188-1.4062 3.125-3.125 3.125-0.85938 0-1.5625 0.70312-1.5625 1.5625s0.70312 1.5625 1.5625 1.5625c3.4531 0 6.25-2.7969 6.25-6.25v-1.5625h4.6875c2.5781 0 4.6875 2.1094 4.6875 4.6875v7.8125h-78.125zm0 62.5v-51.562h78.125v22.453c-2.8438-1.3594-6.0156-2.1406-9.375-2.1406-5.3594 0-10.25 1.9375-14.062 5.1406v-0.45312c0-1.7188-1.4062-3.125-3.125-3.125h-6.25c-1.7188 0-3.125 1.4062-3.125 3.125v6.25c0 1.7188 1.4062 3.125 3.125 3.125h3.0312c-0.9375 2.4375-1.4688 5.0625-1.4688 7.8125 0 5.3594 1.9375 10.25 5.1406 14.062h-47.328c-2.5781 0-4.6875-2.1094-4.6875-4.6875zm51.562-22.859c-0.64062 0.8125-1.2031 1.6562-1.7344 2.5469h-4.5156v-6.25h6.25zm17.188 32.234c-10.344 0-18.75-8.4062-18.75-18.75s8.4062-18.75 18.75-18.75 18.75 8.4062 18.75 18.75-8.4062 18.75-18.75 18.75z"/>
 <path d="m83.203 64.969-12.172 13.609-5.8594-5.8594c-0.60938-0.60938-1.5938-0.60938-2.2031 0s-0.60938 1.5938 0 2.2031l7.0312 7.0312c0.29688 0.29688 0.6875 0.45312 1.1094 0.45312h0.046875c0.4375 0 0.82812-0.20312 1.125-0.51562l13.281-14.844c0.57812-0.64062 0.51562-1.625-0.125-2.2031s-1.625-0.51562-2.2031 0.125z"/>
</svg>