<svg xmlns="http://www.w3.org/2000/svg" xmlns:xlink="http://www.w3.org/1999/xlink" version="1.1" x="0px" y="0px" viewBox="0 0 100 125" style="enable-background:new 0 0 100 100;" xml:space="preserve"><path d="M50,25.8842773c-13.2973633,0-24.1157227,10.8183594-24.1157227,24.1157227S36.7026367,74.1157227,50,74.1157227  S74.1157227,63.2973633,74.1157227,50S63.2973633,25.8842773,50,25.8842773z M50,72.1157227  c-12.1948242,0-22.1157227-9.9208984-22.1157227-22.1157227S37.8051758,27.8842773,50,27.8842773  S72.1157227,37.8051758,72.1157227,50S62.1948242,72.1157227,50,72.1157227z"/><path d="M50,53.9086914c-3.3964844,0-6.1601562,2.7636719-6.1601562,6.1601562c0,3.3969727,2.7636719,6.1606445,6.1601562,6.1606445  s6.1601562-2.7636719,6.1601562-6.1606445C56.1601562,56.6723633,53.3964844,53.9086914,50,53.9086914z M50,64.2294922  c-2.2939453,0-4.1601562-1.8666992-4.1601562-4.1606445S47.7060547,55.9086914,50,55.9086914  s4.1601562,1.8662109,4.1601562,4.1601562S52.2939453,64.2294922,50,64.2294922z"/><path d="M46,50.4399414h8c0.5522461,0,1-0.4477539,1-1V34.9018555c0-0.5522461-0.4477539-1-1-1h-8c-0.5522461,0-1,0.4477539-1,1  v14.5380859C45,49.9921875,45.4477539,50.4399414,46,50.4399414z M47,35.9018555h6v12.5380859h-6V35.9018555z"/><path d="M86.6000977,41.7441406l-5.2036133-0.7900391c-0.7324219-0.1108398-1.3344727-0.6049805-1.5712891-1.2885742  c-0.4052734-1.1723633-0.8857422-2.3320312-1.4272461-3.4462891c-0.315918-0.6518555-0.2397461-1.4277344,0.1992188-2.0244141  l3.1206055-4.237793c1.1816406-1.6044922,1.0161133-3.7915039-0.3925781-5.2001953l-6.0820312-6.0825195  c-1.409668-1.4086914-3.597168-1.5742188-5.2001953-0.3920898l-4.237793,3.1201172  c-0.5961914,0.4394531-1.3710938,0.5161133-2.0239258,0.199707c-1.1162109-0.5419922-2.2758789-1.0224609-3.4467773-1.4272461  c-0.6835938-0.2368164-1.1777344-0.8388672-1.2885742-1.5712891l-0.7900391-5.2036133  C57.956543,11.4296875,56.293457,10,54.3007812,10h-8.6015625c-1.9926758,0-3.6557617,1.4296875-3.9550781,3.3999023  l-0.7900391,5.2036133c-0.1108398,0.7324219-0.6049805,1.3344727-1.2880859,1.5708008  c-1.1713867,0.4052734-2.3310547,0.8857422-3.4467773,1.4277344c-0.6518555,0.315918-1.4282227,0.2397461-2.0244141-0.1992188  l-4.237793-3.1206055c-1.6030273-1.1806641-3.7910156-1.0166016-5.2001953,0.3920898l-6.0820312,6.0825195  c-1.4086914,1.4086914-1.5742188,3.5957031-0.3925781,5.2001953l3.1201172,4.237793  c0.4394531,0.5966797,0.515625,1.3725586,0.199707,2.0239258c-0.5415039,1.1147461-1.0219727,2.2744141-1.4272461,3.4467773  c-0.2368164,0.6835938-0.8388672,1.1777344-1.5712891,1.2885742l-5.2036133,0.7900391  C11.4296875,42.043457,10,43.706543,10,45.6992188v8.6015625c0,1.9926758,1.4296875,3.6557617,3.3999023,3.9550781  l5.2036133,0.7900391c0.7324219,0.1108398,1.3344727,0.6049805,1.5712891,1.2885742  c0.4052734,1.1723633,0.8857422,2.3320312,1.4272461,3.4462891c0.315918,0.6518555,0.2397461,1.4277344-0.1992188,2.0244141  l-3.1206055,4.237793c-1.1816406,1.6044922-1.0161133,3.7915039,0.3925781,5.2001953l6.0820312,6.0820312  c1.4072266,1.4086914,3.5961914,1.5742188,5.2001953,0.3925781l4.237793-3.1201172  c0.597168-0.4384766,1.3725586-0.515625,2.0239258-0.199707c1.1162109,0.5419922,2.2758789,1.0224609,3.4467773,1.4272461  c0.6835938,0.2368164,1.1777344,0.8388672,1.2885742,1.5712891l0.7900391,5.2036133  C42.043457,88.5703125,43.706543,90,45.6992188,90h8.6015625c1.9926758,0,3.6557617-1.4296875,3.9550781-3.3999023  l0.7900391-5.2036133c0.1108398-0.7324219,0.6049805-1.3344727,1.2880859-1.5708008  c1.1713867-0.4052734,2.3310547-0.8857422,3.4467773-1.4277344c0.6508789-0.3154297,1.4272461-0.2392578,2.0244141,0.1992188  l4.237793,3.1206055c1.6035156,1.1816406,3.7915039,1.0161133,5.2001953-0.3925781l6.0820312-6.0820312  c1.4086914-1.4086914,1.5742188-3.5957031,0.3925781-5.2001953l-3.1201172-4.237793  c-0.4394531-0.5966797-0.515625-1.3725586-0.199707-2.0239258c0.5415039-1.1147461,1.0219727-2.2744141,1.4272461-3.4467773  c0.2368164-0.6835938,0.8388672-1.1777344,1.5712891-1.2885742l5.2036133-0.7900391  C88.5703125,57.956543,90,56.293457,90,54.3007812v-8.6015625C90,43.706543,88.5703125,42.043457,86.6000977,41.7441406z   M88,54.3007812c0,0.996582-0.7148438,1.828125-1.699707,1.9775391l-5.2036133,0.7900391  c-1.4697266,0.2231445-2.6811523,1.2236328-3.1611328,2.6118164c-0.3798828,1.0976562-0.8295898,2.1835938-1.3364258,3.2275391  c-0.6416016,1.3212891-0.4931641,2.8862305,0.3876953,4.0830078l3.1206055,4.237793  c0.5908203,0.8022461,0.5083008,1.8959961-0.1962891,2.6005859l-6.0820312,6.0820312  c-0.7045898,0.7041016-1.7983398,0.7871094-2.6005859,0.1962891l-4.237793-3.1210938  c-1.1972656-0.8803711-2.7612305-1.0297852-4.0834961-0.387207c-1.0449219,0.5073242-2.1303711,0.9570312-3.2270508,1.3364258  c-1.3881836,0.4799805-2.3886719,1.6914062-2.6118164,3.1611328l-0.7900391,5.2036133  C56.1289062,87.2851562,55.2973633,88,54.3007812,88h-8.6015625c-0.996582,0-1.828125-0.7148438-1.9775391-1.699707  l-0.7900391-5.2036133c-0.2231445-1.4697266-1.2236328-2.6811523-2.6123047-3.1616211  c-1.0961914-0.3789062-2.1816406-0.8286133-3.2270508-1.3359375c-0.5444336-0.2646484-1.1308594-0.3950195-1.715332-0.3950195  c-0.8334961,0-1.6640625,0.2646484-2.3676758,0.7827148l-4.237793,3.1206055  c-0.8037109,0.5908203-1.8964844,0.5078125-2.6005859-0.1962891l-6.0820312-6.0820312  c-0.7045898-0.7045898-0.7871094-1.7983398-0.1962891-2.6005859l3.1210938-4.237793  c0.8803711-1.1967773,1.0288086-2.7617188,0.387207-4.0834961c-0.5068359-1.043457-0.956543-2.1293945-1.3364258-3.2270508  c-0.4799805-1.3881836-1.6914062-2.3886719-3.1611328-2.6118164l-5.2036133-0.7900391  C12.7148438,56.1289062,12,55.2973633,12,54.3007812v-8.6015625c0-0.996582,0.7148438-1.828125,1.699707-1.9775391  l5.2036133-0.7900391c1.4697266-0.2231445,2.6811523-1.2236328,3.1611328-2.6118164  c0.3798828-1.0976562,0.8295898-2.1835938,1.3364258-3.2275391c0.6416016-1.3212891,0.4931641-2.8862305-0.3876953-4.0830078  l-3.1206055-4.237793c-0.5908203-0.8022461-0.5083008-1.8959961,0.1962891-2.6005859l6.0820312-6.0820312  c0.7041016-0.7050781,1.796875-0.7875977,2.6005859-0.1962891l4.237793,3.1210938  c1.1967773,0.8798828,2.7612305,1.0288086,4.0834961,0.387207c1.0449219-0.5073242,2.1303711-0.9570312,3.2270508-1.3364258  c1.3881836-0.4799805,2.3886719-1.6914062,2.6118164-3.1611328l0.7900391-5.2036133  C43.8710938,12.7148438,44.7026367,12,45.6992188,12h8.6015625c0.996582,0,1.828125,0.7148438,1.9775391,1.699707  l0.7900391,5.2036133c0.2231445,1.4697266,1.2236328,2.6811523,2.6123047,3.1616211  c1.0961914,0.3789062,2.1816406,0.8286133,3.2270508,1.3359375c1.3208008,0.6416016,2.8857422,0.4936523,4.0830078-0.3876953  l4.237793-3.1206055c0.8022461-0.5913086,1.8959961-0.5087891,2.6005859,0.1958008l6.0820312,6.0825195  c0.7045898,0.7045898,0.7871094,1.7983398,0.1962891,2.6005859l-3.1210938,4.237793  c-0.8803711,1.1967773-1.0288086,2.7617188-0.387207,4.0834961c0.5068359,1.043457,0.956543,2.1293945,1.3364258,3.2270508  c0.4799805,1.3881836,1.6914062,2.3886719,3.1611328,2.6118164l5.2036133,0.7900391  C87.2851562,43.8710938,88,44.7026367,88,45.6992188V54.3007812z"/></svg>