<svg xmlns="http://www.w3.org/2000/svg" xmlns:xlink="http://www.w3.org/1999/xlink" version="1.1" x="0px" y="0px" viewBox="0 0 100 125" style="enable-background:new 0 0 100 100;" xml:space="preserve"><path d="M14.0410156,50.9916992h0.6367188v6.4736328l-4.6347656,28.6938477  c-0.1542969,0.9550781,0.1181641,1.9262695,0.7470703,2.6650391C11.4257812,89.5712891,12.3554688,90,13.3408203,90h73.3183594  c0.9912109,0,1.9238281-0.4321289,2.5605469-1.1860352c0.6289062-0.7451172,0.8955078-1.722168,0.7333984-2.6796875  l-4.8623047-28.6728516V15.2763672C85.0908203,12.3671875,82.7041016,10,79.7695312,10H19.9990234  c-2.9345703,0-5.3212891,2.3671875-5.3212891,5.2763672v19.0834961h-0.6367188C11.8125,34.3598633,10,36.1728516,10,38.4013672  v8.5493164C10,49.1787109,11.8125,50.9916992,14.0410156,50.9916992z M29.2197266,88H13.3408203  c-0.3984375,0-0.7724609-0.171875-1.0283203-0.472168c-0.2519531-0.2958984-0.3564453-0.668457-0.2949219-1.0493164  l1.3704834-8.4848633H30.206665L29.2197266,88z M30.4039307,75.9936523H13.7110596l1.2570801-7.7827148h16.2033691  L30.4039307,75.9936523z M15.2911987,66.2109375l1.2380981-7.6655273h15.59552l-0.7560425,7.6655273H15.2911987z M49.125,88  H31.2293091l0.9869385-10.0063477H49.125V88z M49.125,75.9936523H32.4135132l0.7675781-7.7827148H49.125V75.9936523z   M49.125,66.2109375H33.3783569l0.7560425-7.6655273H49.125V66.2109375z M51.125,88V77.9936523h16.9087524L69.0206909,88H51.125z   M67.0689087,68.2109375l0.7675781,7.7827148H51.125v-7.7827148H67.0689087z M51.125,66.2109375v-7.6655273h14.9906006  l0.7560425,7.6655273H51.125z M87.9814453,86.46875c0.0644531,0.3823242-0.0380859,0.7568359-0.2900391,1.0551758  C87.4355469,87.8261719,87.0595703,88,86.6591797,88H71.0302734L70.043335,77.9936523h16.5007935L87.9814453,86.46875z   M86.204895,75.9936523H69.8460693l-0.7675781-7.7827148h15.8065186L86.204895,75.9936523z M84.5458374,66.2109375H68.8812256  l-0.7560425-7.6655273h15.1206055L84.5458374,66.2109375z M16.6777344,15.2763672  C16.6777344,13.4697266,18.1679688,12,19.9990234,12h59.7705078c1.8310547,0,3.3212891,1.4697266,3.3212891,3.2763672v41.269043  H16.6777344v-5.5537109H49c0.3867188,0,0.7392578-0.2231445,0.9042969-0.5732422s0.1132812-0.7636719-0.1328125-1.0625  l-4.3359375-5.2651367v-5.6894531c0-2.2285156-1.8125-4.0415039-4.0410156-4.0415039H16.6777344V15.2763672z M12,38.4013672  c0-1.1254883,0.9160156-2.0415039,2.0410156-2.0415039h27.3535156c1.125,0,2.0410156,0.9160156,2.0410156,2.0415039v6.0483398  c0,0.2319336,0.0810547,0.456543,0.2285156,0.6357422l3.2167969,3.90625H14.0410156  c-1.125,0-2.0410156-0.9155273-2.0410156-2.0410156V38.4013672z"/><path d="M63.6328125,48.4370117c8.6201172,0,15.6337891-7.0126953,15.6337891-15.6328125  s-7.0136719-15.6333008-15.6337891-15.6333008S48,24.184082,48,32.8041992S55.0126953,48.4370117,63.6328125,48.4370117z   M63.6328125,19.1708984c7.5175781,0,13.6337891,6.1157227,13.6337891,13.6333008  c0,7.5170898-6.1162109,13.6328125-13.6337891,13.6328125S50,40.3212891,50,32.8041992  C50,25.2866211,56.1152344,19.1708984,63.6328125,19.1708984z"/><path d="M58.3330078,37.5649414c-0.3710938,0.4086914-0.3408203,1.0410156,0.0673828,1.4125977  c1.5234375,1.3847656,3.3349609,2.1166992,5.2412109,2.1166992c1.5566406,0,3.0859375-0.5039062,4.4238281-1.4575195  c0.2822266-0.2011719,0.5537109-0.4208984,0.8144531-0.6582031c0.4082031-0.371582,0.4384766-1.0039062,0.0673828-1.4125977  s-1.0048828-0.4379883-1.4130859-0.0668945c-0.2021484,0.1835938-0.4111328,0.3535156-0.6289062,0.5087891  c-2.2236328,1.5864258-5.078125,1.3828125-7.1591797-0.5097656C59.3388672,37.1279297,58.7050781,37.1572266,58.3330078,37.5649414z  "/><path d="M55.3027344,29.9868164c0.5527344,0,1-0.4477539,1-1c0-0.9389648,0.7636719-1.703125,1.703125-1.703125  s1.703125,0.7641602,1.703125,1.703125c0,0.5522461,0.4472656,1,1,1s1-0.4477539,1-1  c0-2.0419922-1.6611328-3.703125-3.703125-3.703125s-3.703125,1.6611328-3.703125,3.703125  C54.3027344,29.5390625,54.75,29.9868164,55.3027344,29.9868164z"/><path d="M66.5576172,29.9868164c0.5527344,0,1-0.4477539,1-1c0-0.9389648,0.7636719-1.703125,1.703125-1.703125  s1.703125,0.7641602,1.703125,1.703125c0,0.5522461,0.4472656,1,1,1s1-0.4477539,1-1  c0-2.0419922-1.6611328-3.703125-3.703125-3.703125s-3.703125,1.6611328-3.703125,3.703125  C65.5576172,29.5390625,66.0048828,29.9868164,66.5576172,29.9868164z"/></svg>