<svg xmlns="http://www.w3.org/2000/svg" version="1.1" viewBox="-5.0 -10.0 110.0 135.0">
 <path d="m63.668 29.602h1.8008s-0.73438 0.73438-0.73438 0.73438c-0.33203 0.39844-0.73438 0.73437-1.0664 1.1328-0.73438 0.73438-1.3984 1.5352-2.0664 2.2656 0.80078-0.66797 1.5352-1.3984 2.2656-2.0664 0.39844-0.33203 0.73437-0.73438 1.1328-1.0664l0.73438-0.73437v1.8008 2.332c0 1.5352 0.066406 3.1328 0.19922 4.668 0.13281-1.5352 0.19922-3.1328 0.19922-4.668v-2.332-1.8008l0.73438 0.73437c0.39844 0.33203 0.73437 0.73438 1.1328 1.0664 0.73438 0.73438 1.5352 1.3984 2.2656 2.0664-0.66797-0.80078-1.3984-1.5352-2.0664-2.2656-0.33203-0.39844-0.73438-0.73438-1.0664-1.1328l-0.73437-0.73438h1.8008 2.332c1.5352 0 3.1328-0.066406 4.668-0.19922-1.5352-0.13281-3.1328-0.19922-4.668-0.19922h-2.332-1.8008l0.73437-0.73438c0.33203-0.39844 0.73438-0.73438 1.0664-1.1328 0.73438-0.73438 1.3984-1.5352 2.0664-2.2656-0.80078 0.66797-1.5352 1.3984-2.2656 2.0664-0.39844 0.33203-0.73438 0.73438-1.1328 1.0664l-0.73438 0.73438v-1.8008-2.332c0-1.5352-0.066406-3.1328-0.19922-4.668-0.13281 1.5352-0.19922 3.1328-0.19922 4.668v2.332 1.8008l-0.73438-0.73438c-0.39844-0.33203-0.73438-0.73438-1.1328-1.0664-0.73438-0.73438-1.5352-1.3984-2.2656-2.0664 0.66797 0.80078 1.3984 1.5352 2.0664 2.2656 0.33203 0.39844 0.73438 0.73437 1.0664 1.1328l0.73438 0.73438h-1.8008-2.332c-1.5352 0-3.1328 0.066406-4.668 0.19922 1.5352 0.13281 3.1328 0.19922 4.668 0.19922h2.332z"/>
 <path d="m33 68.398h-1.8008s0.73438-0.73438 0.73438-0.73438c0.33203-0.39844 0.73438-0.73437 1.0664-1.1328 0.73438-0.73438 1.3984-1.5352 2.0664-2.2656-0.80078 0.66797-1.5352 1.3984-2.2656 2.0664-0.39844 0.33203-0.73438 0.73438-1.1328 1.0664l-0.73438 0.73437v-1.8008-2.332c0-1.5352-0.066406-3.1328-0.19922-4.668-0.13281 1.5352-0.19922 3.1328-0.19922 4.668v2.332 1.8008l-0.73438-0.73437c-0.39844-0.33203-0.73438-0.73438-1.1328-1.0664-0.73438-0.73438-1.5352-1.3984-2.2656-2.0664 0.66797 0.80078 1.3984 1.5352 2.0664 2.2656 0.33203 0.39844 0.73438 0.73438 1.0664 1.1328l0.73438 0.73438h-1.8008-2.332c-1.5352 0-3.1328 0.066406-4.668 0.19922 1.5352 0.13281 3.1328 0.19922 4.668 0.19922h2.332 1.8008l-0.73438 0.73438c-0.33203 0.39844-0.73438 0.73438-1.0664 1.1328-0.73438 0.73438-1.3984 1.5352-2.0664 2.2656 0.80078-0.66797 1.5352-1.3984 2.2656-2.0664 0.39844-0.33203 0.73438-0.73438 1.1328-1.0664l0.73438-0.73438v1.8008 2.332c0 1.5352 0.066406 3.1328 0.19922 4.668 0.13281-1.5352 0.19922-3.1328 0.19922-4.668v-2.332-1.8008l0.73438 0.73438c0.39844 0.33203 0.73438 0.73438 1.1328 1.0664 0.73438 0.73438 1.5352 1.3984 2.2656 2.0664-0.66797-0.80078-1.3984-1.5352-2.0664-2.2656-0.33203-0.39844-0.73438-0.73437-1.0664-1.1328l-0.73438-0.73438h1.8008 2.332c1.5352 0 3.1328-0.066406 4.668-0.19922-1.5352-0.13281-3.1328-0.19922-4.668-0.19922h-2.332z"/>
 <path d="m50 3.1328c-0.26562 46.398-0.46484 46.602-46.867 46.867 46.398 0.26562 46.602 0.46484 46.867 46.867 0.26562-46.398 0.46484-46.602 46.867-46.867-46.398-0.26562-46.602-0.46484-46.867-46.867z"/>
</svg>